<?xml version="1.0" encoding="UTF-8" standalone="no"?>
<!-- Created with Inkscape (http://www.inkscape.org/) -->

<svg
   width="329.59488mm"
   height="249.85255mm"
   viewBox="0 0 329.59488 249.85255"
   version="1.1"
   id="svg1"
   xml:space="preserve"
   xmlns="http://www.w3.org/2000/svg"
   xmlns:svg="http://www.w3.org/2000/svg"><defs
     id="defs1"><linearGradient
       id="swatch6"><stop
         style="stop-color:#000000;stop-opacity:1;"
         offset="0"
         id="stop6" /></linearGradient><linearGradient
       id="linearGradient4"><stop
         style="stop-color:#000000;stop-opacity:1;"
         offset="0"
         id="stop4" /><stop
         style="stop-color:#000000;stop-opacity:0;"
         offset="1"
         id="stop5" /></linearGradient></defs><g
     id="layer2"
     style="display:inline"
     transform="translate(-0.36553671,10.710441)"><path
       id="rect1"
       style="display:inline;fill:#000000;stroke-width:5.45899"
       d="m 39.755196,9.4500692 v 0.3736206 h -0.0067 v 7.9033932 h -0.02015 v 1.999878 h 1.952853 v 17.360698 h 1.999878 V 18.311544 17.727083 h -1.932699 v -6.277136 h 24.723039 v 6.534485 h -2.227254 v 0.06201 h -0.001 v 19.795691 h 0.02687 v 0.165364 h 15.015104 v -0.0031 h 0.277502 v -4.83278 h 3.64939 v 2.547131 h -5.17e-4 v 1.999878 h 5.17e-4 v 0.02532 h 1.999878 v -0.02532 h 7.37216 0.167948 v -4.618323 h 3.940845 v 4.563029 h 0.02481 v 0.0067 h 7.02283 v 10e-4 h 2.00039 v -10e-4 h 0.0124 v -1.999878 h -0.0124 v -2.570386 h 4.0287 v 4.347022 h 1.99988 6.5629 v -0.0026 h 0.4439 v -4.752681 h 4.146 v 2.668054 h -0.0171 v 1.999878 h 6.95875 v 0.0026 h 1.99988 v -4.816244 h 4.42608 v 2.806547 h -0.0196 v 1.999878 h 8.63926 v -1.999878 h -0.008 V 32.983 h 1.45676 v 0.0057 h 1.99988 v -9.744108 h -1.99988 v 7.738546 h -3.4494 v 0.02222 h -0.007 v 4.347021 h -4.6116 v -4.796606 h -0.30076 v -0.0098 h -8.13025 v 1.999878 h 0.005 v 2.813782 h -4.94182 v -4.675167 h -1.99988 v 0.0072 h -6.14639 v 1.999878 2.755387 h -5.00641 v -4.346505 h -0.002 v -5.17e-4 h -8.01501 v 0.05684 h -0.0124 v 4.513419 h -5.04724 v -2.569869 h 0.01395 v -1.999878 h -7.955586 v 1.999878 h 5.16e-4 v 2.618445 h -5.54023 v -4.545976 h -0.0098 v -0.001 h -7.655347 v 1.999878 h 0.0155 v 2.835485 H 66.242985 V 19.98431 h 2.208651 v -0.01034 h 0.01964 v -8.524028 h 0.01085 V 9.4500692 Z M 152.83305,15.417664 v 2.000394 h 0.014 v 7.409367 h 2.0004 v -7.409367 h 30.72267 v 7.203695 h 2.00039 v -9.204089 h -0.007 z m 39.18262,8.443412 v 8.771557 h 1.99988 v -0.0124 h 1.19941 v 2.785877 h -0.0248 v 1.999878 h 7.04815 v 0.0248 h 1.99988 v -4.546492 h 4.01267 v 4.5868 h 0.0248 v 0.24753 h 9.08368 V 35.71875 h -0.0119 v -2.665987 h 4.06383 v 2.498039 h -0.004 v 1.999878 h 9.34826 v -0.0956 h 0.014 v -4.835364 h 3.82147 v 4.994011 h 1.99988 v -0.0041 h 7.321 v -0.12144 h 0.0191 v -4.480863 h 3.90157 v 4.458642 h 1.99988 v -0.02015 h 6.42286 v -0.0016 h 0.24288 v -4.131531 h 4.11241 v 2.039669 h -0.0129 v 1.999878 h 5.90558 v -1.999878 h -0.016 v -3.815271 h 0.72037 v -2.000395 h -1.99988 v 0.0078 h -0.72036 v 5.807914 h -1.87689 v -4.050915 h -1.99988 v 0.01137 h -6.11229 v 1.999878 2.132687 h -4.66586 v -4.428154 h -0.0305 v -0.0098 h -7.84087 v 0.01499 h -0.03 v 4.587317 h -5.34024 v -2.989999 h 0.0129 v -1.999878 h -7.8109 v 0.05633 h -0.0233 v 4.874638 h -5.35833 v -2.498039 h 0.0109 v -1.999878 h -8.07496 v 1.999878 2.665987 h -5.09581 v -2.834452 h 0.0145 V 30.88442 h -8.05171 v 1.999878 h 0.0243 v 2.52181 h -5.02346 v -4.810043 h -1.99988 v 0.02377 h -1.19941 v -6.75876 z m 81.84203,5.599658 v 3.324345 h 0.0129 v 0.06925 h 22.67924 v 2.736784 h 1.99988 v -4.717025 h -0.0274 v -0.01964 h -22.66477 v -1.393713 z m -4.77645,0.07545 v 1.999878 h 1.35186 v -1.999878 z m -233.287569,6.40736 v 18.708419 h 1.999878 v -0.0098 h 3.006018 v 4.000789 H 36.01744 v 0.05168 h -0.0098 v 24.515299 h 0.128675 v 0.01705 H 65.956181 V 81.227083 H 38.007499 V 60.64281 h 4.424536 v -0.0098 h 0.36742 v -5.990849 h 0.0098 v -1.999878 h -0.0098 v -0.0036 h -1.999878 v 0.0036 H 37.793559 V 35.943542 Z m 260.898799,4.14445 v 85.094026 h -13.3382 v 0.4439 h -0.003 v 8.80929 h 1.99987 v -0.0119 h 7.16856 v -1.99988 h -7.16856 v -5.24154 h 11.34091 v 0.0109 h 2.0004 V 40.087992 Z M 64.800179,93.832515 v 1.176673 h -8.876461 v 0.226859 h -0.02377 v 6.243543 h -1.612305 v 1.99988 h 3.128492 0.483691 v -6.469887 h 8.860958 v -0.04806 h 0.03927 v -3.129008 z m -22.250838,7.844995 v 33.8181 h 1.999878 V 103.696 h 5.235856 v -1.99988 h -5.235856 v -0.0186 z m 253.063109,31.19138 v 35.26297 h -10.32702 v 0.1974 h -0.0377 V 188.481 h -8.11062 v 1.99988 h 8.13335 v -0.0284 h 1.97766 v -20.32073 h 10.26707 v -0.25114 h 0.0972 v -37.0117 z m -255.875857,5.0028 v 6.5629 h 1.999878 v -6.5629 z m 2.691308,8.80256 v 31.2937 h -0.02377 v 2.00039 h 13.205396 v 6.8554 h 1.999877 v -5.2e-4 h 44.543536 v 12.7 h 0.63407 v 0.0243 h 7.01869 v -1.99988 h -5.65237 v -10.72441 h 0.0243 v -1.99988 h -0.0243 v -0.003 h -2.00039 v 0.003 H 57.609403 v -6.84351 h -0.02222 v -0.0119 H 44.428296 v -31.2937 z M 266.777,188.62415 v 0.0238 h -0.41961 v 6.69933 h -3.73518 v 2.00039 h 0.007 v 2.90112 h -4.00079 v -4.7718 h -0.007 v -0.0248 H 249.592 v 0.0171 h -0.15089 v 4.87153 h -4.00028 v -4.71806 -0.24132 h -9.14879 v 0.006 h -0.046 v 4.89531 h -4.05866 v -4.747 h -0.0139 v -0.0222 h -7.01095 v -0.0103 h -1.99987 v 4.75578 h -4.35013 v -2.7342 h 0.006 v -1.99988 h -6.97684 v -0.0114 h -1.99987 v 4.75217 h -4.22404 v -4.63125 h -0.0145 v -0.12092 h -8.89351 v 0.0212 h -0.003 v 4.7749 h -3.92535 v -3.00447 h 0.003 v -1.99988 h -9.25008 v 0.0227 h -0.0362 v 5.05654 h -4.26124 v -3.13883 h 5.2e-4 v -1.99987 h -7.03213 v -0.007 h -1.99988 v 8.29872 h -4.23436 v -0.8847 h -1.99988 v 2.86494 h 0.12816 v 0.0196 h 8.07496 v -0.0212 h 0.031 v -8.2703 h 5.03174 v 3.13883 h -5.2e-4 v 2.0004 h 8.26565 v -2.0004 h -0.004 v -3.0794 h 5.28392 v 4.95371 h 0.0305 v 0.0512 h 7.89202 v -0.19069 h 0.003 v -4.60592 h 4.9103 v 4.73976 h 0.10128 v 0.0129 h 8.07858 v -0.0661 h 0.0439 v -4.67516 h 4.97128 v 4.74131 h 1.99987 v -0.007 h 6.33295 v -0.0687 h 0.017 v -4.67672 h 5.02502 v 4.77645 h 1.99988 v -0.007 h 6.05182 v -0.0563 h 0.007 v -4.84519 h 5.19503 v 4.94492 h 0.0403 v 0.0145 h 5.95985 v 0.002 h 2.00039 v -4.89014 h 5.18728 v 2.79673 h -0.003 v 1.99988 h 7.99383 v -0.0589 h 0.01 v -4.84209 h 3.7455 v -2.00039 h -0.017 v -4.72271 h 3.68505 v -2.00039 z m -152.52351,8.53849 -1.91564,1.07281 1.80867,3.03857 v 0.13281 h 0.0791 l 0.007,0.0114 0.0202,-0.0114 h 11.64063 v -2.0004 h -0.0486 v -1.32808 h -1.99987 v 1.32808 h -8.25531 z m 14.37225,1.39888 v 4.00389 h 0.005 v 0.0512 h 22.06222 v 10.13375 h -0.0109 v 1.99988 h 9.05526 v 0.006 h 1.99987 v -12.13363 h -1.99987 v 10.12755 h -7.04453 v -10.13375 h 0.0119 v -1.99987 h -22.07927 v -2.05518 z" /><path
       style="fill:none;stroke:#000000;stroke-width:0.959;stroke-linecap:square;stroke-linejoin:bevel;stroke-dasharray:none;stroke-opacity:1;paint-order:stroke fill markers"
       d="m 104.46199,219.65545 9.8485,-0.0679 v -13.58414 l -9.10137,-0.13584 -6.316624,-13.99166 -56.57792,-0.20376 -3.803557,-3.39603 0.203764,-18.67819 -10.188102,0.0679 -0.407524,24.65521 -5.229891,-0.13584 0.06792,9.98433 11.003148,0.0679 5.977019,11.20691 58.072173,0.54336 -0.06792,3.73564 z"
       id="path4" /><path
       id="path7"
       style="fill:none;stroke:#000000;stroke-width:0.959001;stroke-linecap:square;stroke-linejoin:bevel;stroke-dasharray:none;stroke-opacity:1;paint-order:stroke fill markers"
       d="m 48.22393,191.67202 -7.437789,8.93176 z m 14.534513,0.0341 -7.334953,8.69404 z m -7.301363,0.17001 -7.301363,8.55762 z m 14.399121,0 -7.335469,8.65942 z m 7.030062,0.1695 -7.369576,8.48992 z m 7.063652,0.0341 -7.029546,8.38812 z m 7.233667,0 -7.165971,8.42222 z m -40.413038,13.82189 5.433777,9.57668 z m 6.282821,0.13591 5.467367,9.61079 z m 6.554122,0.20361 5.535579,9.33896 z m 6.452836,0.0341 5.263761,9.16895 z m 6.418213,0 5.433777,9.57668 z m 12.633337,0.1695 5.467884,9.23717 z m -6.384623,0.0341 5.366081,9.03356 z m -38.069511,0.1018 5.161959,8.93176 z" /><rect
       style="fill:none;stroke:#000000;stroke-width:0.959001;stroke-linecap:square;stroke-linejoin:bevel;stroke-dasharray:none;stroke-opacity:1;paint-order:stroke fill markers"
       id="rect22"
       width="296.40579"
       height="221.1497"
       x="18.300652"
       y="2.0269959" /><text
       xml:space="preserve"
       style="font-style:normal;font-variant:normal;font-weight:normal;font-stretch:normal;font-size:7.7611px;line-height:1.6;font-family:Arial;-inkscape-font-specification:Arial;text-align:center;writing-mode:lr-tb;direction:ltr;text-anchor:middle;white-space:pre;inline-size:118.657;fill:none;stroke:#000000;stroke-width:0.959001;stroke-linecap:square;stroke-linejoin:bevel;stroke-dasharray:none;stroke-opacity:1;paint-order:stroke fill markers"
       x="173.43146"
       y="0.39689943"
       id="text26"><tspan
         x="173.43146"
         y="0.39689943"
         id="tspan5"><tspan
           style="font-family:Monospace;-inkscape-font-specification:Monospace;stroke-width:0.959"
           id="tspan3">Rua General Canabarro</tspan></tspan></text><text
       xml:space="preserve"
       style="font-style:normal;font-variant:normal;font-weight:normal;font-stretch:normal;font-size:7.7611px;line-height:1.6;font-family:Arial;-inkscape-font-specification:Arial;text-align:center;writing-mode:lr-tb;direction:ltr;text-anchor:middle;white-space:pre;inline-size:118.657;display:inline;fill:none;stroke:#000000;stroke-width:0.959001;stroke-linecap:square;stroke-linejoin:bevel;stroke-dasharray:none;stroke-opacity:1;paint-order:stroke fill markers"
       x="173.43146"
       y="0.39689943"
       id="text26-80"
       transform="translate(7.694467,233.59736)"><tspan
         x="173.43146"
         y="0.39689943"
         id="tspan7"><tspan
           style="font-family:Monospace;-inkscape-font-specification:Monospace;stroke-width:0.959"
           id="tspan6">Rua Visconde de Paranaguá</tspan></tspan></text><path
       style="stroke:#000000;stroke-width:1.01605;stroke-linecap:square;stroke-linejoin:bevel;stroke-dasharray:1.01605, 2.03211;stroke-dashoffset:0;stroke-opacity:1;paint-order:stroke fill markers"
       d="M 1.0129311,-10.085705 H 329.87455"
       id="path26" /><path
       style="stroke:#000000;stroke-width:0.959001;stroke-linecap:square;stroke-linejoin:bevel;stroke-dasharray:0.959001, 1.918;stroke-dashoffset:0;stroke-opacity:1;paint-order:stroke fill markers"
       d="m 329.46636,-9.9896505 c 0,77.8680465 0,155.7360905 0,233.6041405"
       id="path27"
       transform="matrix(1,0,0,1.0635218,0,0.50893058)" /><path
       style="stroke:#000000;stroke-width:0.959001;stroke-linecap:square;stroke-linejoin:bevel;stroke-dasharray:0.959001, 1.918;stroke-dashoffset:0;stroke-opacity:1;paint-order:stroke fill markers"
       d="m 329.649,238.66261 c -109.62396,0 -219.24792,0 -328.87188167,0"
       id="path28"
       transform="matrix(0.99925868,0,0,1,0.07663766,0)" /><path
       style="stroke:#000000;stroke-width:0.959001;stroke-linecap:square;stroke-linejoin:bevel;stroke-dasharray:0.959001, 1.918;stroke-dashoffset:0;stroke-opacity:1;paint-order:stroke fill markers"
       d="m 0.84503899,238.52677 c 0,-82.87082 0,-165.74165 0,-248.612475"
       id="path29"
       transform="matrix(1,0,0,1.001008,0,-0.24092931)" /><text
       xml:space="preserve"
       style="font-style:normal;font-variant:normal;font-weight:normal;font-stretch:normal;font-size:7.7611px;line-height:0.8;font-family:Arial;-inkscape-font-specification:Arial;text-align:center;writing-mode:lr-tb;direction:ltr;text-anchor:middle;white-space:pre;inline-size:118.657;display:inline;fill:none;stroke:#000000;stroke-width:0.959001;stroke-linecap:square;stroke-linejoin:bevel;stroke-dasharray:none;stroke-opacity:1;paint-order:stroke fill markers"
       x="173.43146"
       y="0.39689943"
       id="text26-8"
       transform="translate(148.396,1.102036)"><tspan
         x="173.43146"
         y="0.39689943"
         id="tspan9"><tspan
           style="font-family:Monospace;-inkscape-font-specification:Monospace;stroke-width:0.959"
           id="tspan8">R
</tspan></tspan><tspan
         x="173.43146"
         y="6.6909715"
         id="tspan11"><tspan
           style="font-family:Monospace;-inkscape-font-specification:Monospace;stroke-width:0.959"
           id="tspan10">u
</tspan></tspan><tspan
         x="173.43146"
         y="12.985044"
         id="tspan13"><tspan
           style="font-family:Monospace;-inkscape-font-specification:Monospace;stroke-width:0.959"
           id="tspan12">a
</tspan></tspan><tspan
         x="173.43146"
         y="19.279116"
         id="tspan15"><tspan
           style="font-family:Monospace;-inkscape-font-specification:Monospace;stroke-width:0.959"
           id="tspan14">
</tspan></tspan><tspan
         x="173.43146"
         y="25.573188"
         id="tspan17"><tspan
           style="font-family:Monospace;-inkscape-font-specification:Monospace;stroke-width:0.959"
           id="tspan16">C
</tspan></tspan><tspan
         x="173.43146"
         y="31.867259"
         id="tspan19"><tspan
           style="font-family:Monospace;-inkscape-font-specification:Monospace;stroke-width:0.959"
           id="tspan18">o
</tspan></tspan><tspan
         x="173.43146"
         y="38.16133"
         id="tspan21"><tspan
           style="font-family:Monospace;-inkscape-font-specification:Monospace;stroke-width:0.959"
           id="tspan20">m
</tspan></tspan><tspan
         x="173.43146"
         y="44.455402"
         id="tspan23"><tspan
           style="font-family:Monospace;-inkscape-font-specification:Monospace;stroke-width:0.959"
           id="tspan22">e
</tspan></tspan><tspan
         x="173.43146"
         y="50.749473"
         id="tspan25"><tspan
           style="font-family:Monospace;-inkscape-font-specification:Monospace;stroke-width:0.959"
           id="tspan24">n
</tspan></tspan><tspan
         x="173.43146"
         y="57.043544"
         id="tspan27"><tspan
           style="font-family:Monospace;-inkscape-font-specification:Monospace;stroke-width:0.959"
           id="tspan26">d
</tspan></tspan><tspan
         x="173.43146"
         y="63.337615"
         id="tspan29"><tspan
           style="font-family:Monospace;-inkscape-font-specification:Monospace;stroke-width:0.959"
           id="tspan28">a
</tspan></tspan><tspan
         x="173.43146"
         y="69.63169"
         id="tspan31"><tspan
           style="font-family:Monospace;-inkscape-font-specification:Monospace;stroke-width:0.959"
           id="tspan30">d
</tspan></tspan><tspan
         x="173.43146"
         y="75.925765"
         id="tspan33"><tspan
           style="font-family:Monospace;-inkscape-font-specification:Monospace;stroke-width:0.959"
           id="tspan32">o
</tspan></tspan><tspan
         x="173.43146"
         y="82.21984"
         id="tspan35"><tspan
           style="font-family:Monospace;-inkscape-font-specification:Monospace;stroke-width:0.959"
           id="tspan34">r
</tspan></tspan><tspan
         x="173.43146"
         y="88.513915"
         id="tspan37"><tspan
           style="font-family:Monospace;-inkscape-font-specification:Monospace;stroke-width:0.959"
           id="tspan36">
</tspan></tspan><tspan
         x="173.43146"
         y="94.80799"
         id="tspan39"><tspan
           style="font-family:Monospace;-inkscape-font-specification:Monospace;stroke-width:0.959"
           id="tspan38">v
</tspan></tspan><tspan
         x="173.43146"
         y="101.10207"
         id="tspan41"><tspan
           style="font-family:Monospace;-inkscape-font-specification:Monospace;stroke-width:0.959"
           id="tspan40">a
</tspan></tspan><tspan
         x="173.43146"
         y="107.39614"
         id="tspan43"><tspan
           style="font-family:Monospace;-inkscape-font-specification:Monospace;stroke-width:0.959"
           id="tspan42">s
</tspan></tspan><tspan
         x="173.43146"
         y="113.69022"
         id="tspan45"><tspan
           style="font-family:Monospace;-inkscape-font-specification:Monospace;stroke-width:0.959"
           id="tspan44">c
</tspan></tspan><tspan
         x="173.43146"
         y="119.98429"
         id="tspan47"><tspan
           style="font-family:Monospace;-inkscape-font-specification:Monospace;stroke-width:0.959"
           id="tspan46">o
</tspan></tspan><tspan
         x="173.43146"
         y="126.27837"
         id="tspan49"><tspan
           style="font-family:Monospace;-inkscape-font-specification:Monospace;stroke-width:0.959"
           id="tspan48">
</tspan></tspan><tspan
         x="173.43146"
         y="132.57244"
         id="tspan51"><tspan
           style="font-family:Monospace;-inkscape-font-specification:Monospace;stroke-width:0.959"
           id="tspan50">v
</tspan></tspan><tspan
         x="173.43146"
         y="138.86652"
         id="tspan53"><tspan
           style="font-family:Monospace;-inkscape-font-specification:Monospace;stroke-width:0.959"
           id="tspan52">e
</tspan></tspan><tspan
         x="173.43146"
         y="145.16058"
         id="tspan55"><tspan
           style="font-family:Monospace;-inkscape-font-specification:Monospace;stroke-width:0.959"
           id="tspan54">i
</tspan></tspan><tspan
         x="173.43146"
         y="151.45465"
         id="tspan57"><tspan
           style="font-family:Monospace;-inkscape-font-specification:Monospace;stroke-width:0.959"
           id="tspan56">r
</tspan></tspan><tspan
         x="173.43146"
         y="157.74872"
         id="tspan59"><tspan
           style="font-family:Monospace;-inkscape-font-specification:Monospace;stroke-width:0.959"
           id="tspan58">a
</tspan></tspan><tspan
         x="173.43146"
         y="164.04278"
         id="tspan61"><tspan
           style="font-family:Monospace;-inkscape-font-specification:Monospace;stroke-width:0.959"
           id="tspan60">
</tspan></tspan><tspan
         x="173.43146"
         y="170.33685"
         id="tspan63"><tspan
           style="font-family:Monospace;-inkscape-font-specification:Monospace;stroke-width:0.959"
           id="tspan62">d
</tspan></tspan><tspan
         x="173.43146"
         y="176.63092"
         id="tspan65"><tspan
           style="font-family:Monospace;-inkscape-font-specification:Monospace;stroke-width:0.959"
           id="tspan64">a
</tspan></tspan><tspan
         x="173.43146"
         y="182.92499"
         id="tspan67"><tspan
           style="font-family:Monospace;-inkscape-font-specification:Monospace;stroke-width:0.959"
           id="tspan66">
</tspan></tspan><tspan
         x="173.43146"
         y="189.21905"
         id="tspan69"><tspan
           style="font-family:Monospace;-inkscape-font-specification:Monospace;stroke-width:0.959"
           id="tspan68">F
</tspan></tspan><tspan
         x="173.43146"
         y="195.51312"
         id="tspan71"><tspan
           style="font-family:Monospace;-inkscape-font-specification:Monospace;stroke-width:0.959"
           id="tspan70">o
</tspan></tspan><tspan
         x="173.43146"
         y="201.80719"
         id="tspan73"><tspan
           style="font-family:Monospace;-inkscape-font-specification:Monospace;stroke-width:0.959"
           id="tspan72">n
</tspan></tspan><tspan
         x="173.43146"
         y="208.10126"
         id="tspan75"><tspan
           style="font-family:Monospace;-inkscape-font-specification:Monospace;stroke-width:0.959"
           id="tspan74">s
</tspan></tspan><tspan
         x="173.43146"
         y="214.39532"
         id="tspan77"><tspan
           style="font-family:Monospace;-inkscape-font-specification:Monospace;stroke-width:0.959"
           id="tspan76">e
</tspan></tspan><tspan
         x="173.43146"
         y="220.68939"
         id="tspan79"><tspan
           style="font-family:Monospace;-inkscape-font-specification:Monospace;stroke-width:0.959"
           id="tspan78">c
</tspan></tspan><tspan
         x="173.43146"
         y="226.98346"
         id="tspan81"><tspan
           style="font-family:Monospace;-inkscape-font-specification:Monospace;stroke-width:0.959"
           id="tspan80">a
</tspan></tspan><tspan
         x="173.43146"
         y="233.27753"
         id="tspan83"><tspan
           style="font-family:Monospace;-inkscape-font-specification:Monospace;stroke-width:0.959"
           id="tspan82">
</tspan></tspan></text><text
       xml:space="preserve"
       style="font-style:normal;font-variant:normal;font-weight:normal;font-stretch:normal;font-size:7.7611px;line-height:0.8;font-family:Arial;-inkscape-font-specification:Arial;text-align:center;writing-mode:lr-tb;direction:ltr;text-anchor:middle;white-space:pre;inline-size:118.657;display:inline;fill:none;stroke:#000000;stroke-width:0.959001;stroke-linecap:square;stroke-linejoin:bevel;stroke-dasharray:none;stroke-opacity:1;paint-order:stroke fill markers"
       x="173.43146"
       y="0.39689943"
       id="text26-8-4"
       transform="translate(-164.13769,55.014628)"><tspan
         x="173.43146"
         y="0.39689943"
         id="tspan85"><tspan
           style="font-family:Monospace;-inkscape-font-specification:Monospace;stroke-width:0.959"
           id="tspan84">R
</tspan></tspan><tspan
         x="173.43146"
         y="6.6909715"
         id="tspan87"><tspan
           style="font-family:Monospace;-inkscape-font-specification:Monospace;stroke-width:0.959"
           id="tspan86">u
</tspan></tspan><tspan
         x="173.43146"
         y="12.985044"
         id="tspan89"><tspan
           style="font-family:Monospace;-inkscape-font-specification:Monospace;stroke-width:0.959"
           id="tspan88">a
</tspan></tspan><tspan
         x="173.43146"
         y="19.279116"
         id="tspan91"><tspan
           style="font-family:Monospace;-inkscape-font-specification:Monospace;stroke-width:0.959"
           id="tspan90">
</tspan></tspan><tspan
         x="173.43146"
         y="25.573188"
         id="tspan93"><tspan
           style="font-family:Monospace;-inkscape-font-specification:Monospace;stroke-width:0.959"
           id="tspan92">G
</tspan></tspan><tspan
         x="173.43146"
         y="31.867259"
         id="tspan95"><tspan
           style="font-family:Monospace;-inkscape-font-specification:Monospace;stroke-width:0.959"
           id="tspan94">e
</tspan></tspan><tspan
         x="173.43146"
         y="38.16133"
         id="tspan97"><tspan
           style="font-family:Monospace;-inkscape-font-specification:Monospace;stroke-width:0.959"
           id="tspan96">n
</tspan></tspan><tspan
         x="173.43146"
         y="44.455402"
         id="tspan99"><tspan
           style="font-family:Monospace;-inkscape-font-specification:Monospace;stroke-width:0.959"
           id="tspan98">e
</tspan></tspan><tspan
         x="173.43146"
         y="50.749473"
         id="tspan101"><tspan
           style="font-family:Monospace;-inkscape-font-specification:Monospace;stroke-width:0.959"
           id="tspan100">r
</tspan></tspan><tspan
         x="173.43146"
         y="57.043544"
         id="tspan103"><tspan
           style="font-family:Monospace;-inkscape-font-specification:Monospace;stroke-width:0.959"
           id="tspan102">a
</tspan></tspan><tspan
         x="173.43146"
         y="63.337615"
         id="tspan105"><tspan
           style="font-family:Monospace;-inkscape-font-specification:Monospace;stroke-width:0.959"
           id="tspan104">l
</tspan></tspan><tspan
         x="173.43146"
         y="69.63169"
         id="tspan107"><tspan
           style="font-family:Monospace;-inkscape-font-specification:Monospace;stroke-width:0.959"
           id="tspan106">
</tspan></tspan><tspan
         x="173.43146"
         y="75.925765"
         id="tspan109"><tspan
           style="font-family:Monospace;-inkscape-font-specification:Monospace;stroke-width:0.959"
           id="tspan108">O
</tspan></tspan><tspan
         x="173.43146"
         y="82.21984"
         id="tspan111"><tspan
           style="font-family:Monospace;-inkscape-font-specification:Monospace;stroke-width:0.959"
           id="tspan110">s
</tspan></tspan><tspan
         x="173.43146"
         y="88.513915"
         id="tspan113"><tspan
           style="font-family:Monospace;-inkscape-font-specification:Monospace;stroke-width:0.959"
           id="tspan112">ó
</tspan></tspan><tspan
         x="173.43146"
         y="94.80799"
         id="tspan115"><tspan
           style="font-family:Monospace;-inkscape-font-specification:Monospace;stroke-width:0.959"
           id="tspan114">r
</tspan></tspan><tspan
         x="173.43146"
         y="101.10207"
         id="tspan117"><tspan
           style="font-family:Monospace;-inkscape-font-specification:Monospace;stroke-width:0.959"
           id="tspan116">i
</tspan></tspan><tspan
         x="173.43146"
         y="107.39614"
         id="tspan119"><tspan
           style="font-family:Monospace;-inkscape-font-specification:Monospace;stroke-width:0.959"
           id="tspan118">o
</tspan></tspan><tspan
         x="173.43146"
         y="113.69022"
         id="tspan121"><tspan
           style="font-family:Monospace;-inkscape-font-specification:Monospace;stroke-width:0.959"
           id="tspan120">
</tspan></tspan></text></g></svg>
