<?xml version="1.0" encoding="UTF-8" standalone="no"?>
<!-- Created with Inkscape (http://www.inkscape.org/) -->

<svg
   width="137.19647mm"
   height="141.28551mm"
   viewBox="0 0 137.19647 141.28551"
   version="1.1"
   id="svg1"
   xmlns="http://www.w3.org/2000/svg"
   xmlns:svg="http://www.w3.org/2000/svg">
  <defs
     id="defs1" />
  <g
     id="layer5"
     transform="translate(-53.654915,-18.979302)">
    <g
       id="layer4"
       style="fill:#000000;fill-opacity:0">
      <path
         style="fill:#000000;fill-opacity:0;stroke:none;stroke-width:2;stroke-linecap:square;stroke-linejoin:round;stroke-opacity:1"
         d="M 54.847024,86.25679 H 79.14877 V 20.459573 H 67.910413 V 38.517787 H 55.039132 Z"
         id="sala1" />
      <path
         style="fill:#000000;fill-opacity:0;stroke:none;stroke-width:2;stroke-linecap:square;stroke-linejoin:round;stroke-opacity:1"
         d="M 79.436933,85.968627 V 20.651681 H 90.002909 V 39.574385 H 101.91365 V 86.25679 Z"
         id="sala2" />
      <path
         style="fill:#000000;fill-opacity:0;stroke:none;stroke-width:2;stroke-linecap:square;stroke-linejoin:round;stroke-opacity:1"
         d="m 103.16235,86.25679 h 23.05304 V 20.747736 h -9.89359 v 17.770051 h -13.15945 z"
         id="sala3" />
      <path
         style="fill:#000000;fill-opacity:0;stroke:none;stroke-width:2;stroke-linecap:square;stroke-linejoin:round;stroke-opacity:1"
         d="M 127.36804,86.737062 H 149.7487 V 39.382276 h -12.1989 v -18.63454 h -9.98965 z"
         id="sala4" />
      <path
         style="fill:#000000;fill-opacity:0;stroke:none;stroke-width:2;stroke-linecap:square;stroke-linejoin:round;stroke-opacity:1"
         d="m 151.09346,86.833116 h 23.34121 V 20.651681 h -10.27782 v 18.250324 h -12.87128 z"
         id="sala5" />
      <path
         style="fill:#000000;fill-opacity:0;stroke:none;stroke-width:2;stroke-linecap:square;stroke-linejoin:round;stroke-opacity:1"
         d="M 150.03687,111.32697 V 158.5857 H 126.98383 V 111.42303 Z"
         id="sala6" />
      <path
         style="fill:#000000;fill-opacity:0;stroke:none;stroke-width:2;stroke-linecap:square;stroke-linejoin:round;stroke-opacity:1"
         d="m 103.16235,110.94275 h 22.57277 v 47.5469 h -22.57277 z"
         id="sala7" />
      <path
         style="fill:#000000;fill-opacity:0;stroke:none;stroke-width:2;stroke-linecap:square;stroke-linejoin:round;stroke-opacity:1"
         d="M 102.10576,110.94275 H 79.052715 v 48.02717 h 23.053045 z"
         id="sala8" />
      <path
         style="fill:#000000;fill-opacity:0;stroke:none;stroke-width:2;stroke-linecap:square;stroke-linejoin:round;stroke-opacity:1"
         d="m 55.039132,111.13486 h 23.149094 v 47.5469 H 54.654915 Z"
         id="sala9" />
    </g>
    <g
       id="layer3">
      <path
         style="fill:none;fill-opacity:0.419525;stroke:#000000;stroke-width:2;stroke-linecap:square;stroke-linejoin:round;stroke-opacity:1"
         d="m 54.750969,87.025225 c 0,0 0,-48.027166 0,-48.027166"
         id="path1"
         transform="matrix(1,0,0,0.99154864,0,0.5758378)" />
      <path
         style="fill:none;fill-opacity:0.419525;stroke:#000000;stroke-width:2;stroke-linecap:square;stroke-linejoin:round;stroke-opacity:1"
         d="m 54.654915,39.190168 c 0,0 16.905562,0 16.905562,0"
         id="path2"
         transform="matrix(0.99550921,0,0,1,0.3258536,0)" />
      <path
         style="fill:none;fill-opacity:0.419525;stroke:#000000;stroke-width:2;stroke-linecap:square;stroke-linejoin:round;stroke-opacity:1"
         d="m 67.814358,39.190168 c 0,0 0,-18.82665 0,-18.82665"
         id="path3" />
      <path
         style="fill:none;fill-opacity:0.419525;stroke:#000000;stroke-width:2;stroke-linecap:square;stroke-linejoin:round;stroke-opacity:1"
         d="m 67.910413,20.17141 c 0,0 22.092496,0 22.092496,0"
         id="path4" />
      <path
         style="fill:none;fill-opacity:0.419525;stroke:#000000;stroke-width:2;stroke-linecap:square;stroke-linejoin:round;stroke-opacity:1"
         d="m 90.098964,20.459573 c 0,0 0.192108,18.922703 0.192108,18.922703"
         id="path5" />
      <path
         style="fill:none;fill-opacity:0.419525;stroke:#000000;stroke-width:2;stroke-linecap:square;stroke-linejoin:round;stroke-opacity:1"
         d="m 86.160736,39.478331 c 0,0 32.370314,0 32.370314,0"
         id="path6"
         transform="matrix(0.94690091,0,0,1,5.818691,0)" />
      <path
         style="fill:none;fill-opacity:0.419525;stroke:#000000;stroke-width:2;stroke-linecap:square;stroke-linejoin:round;stroke-opacity:1"
         d="m 115.64942,19.979301 c 0,0 0,19.979301 0,19.979301"
         id="path7"
         transform="matrix(1,0,0,0.97377869,0,0.49766208)" />
      <path
         style="fill:none;fill-opacity:0.419525;stroke:#000000;stroke-width:2;stroke-linecap:square;stroke-linejoin:round;stroke-opacity:1"
         d="m 115.64942,20.267464 c 0,0 22.2846,0 22.2846,0"
         id="path8" />
      <path
         style="fill:none;fill-opacity:0.419525;stroke:#000000;stroke-width:2;stroke-linecap:square;stroke-linejoin:round;stroke-opacity:1"
         d="m 138.03008,20.267464 c 0,0 0,18.634541 0,18.634541"
         id="path9" />
      <path
         style="fill:none;fill-opacity:0.419525;stroke:#000000;stroke-width:2;stroke-linecap:square;stroke-linejoin:round;stroke-opacity:1"
         d="m 134.1879,38.998059 c 0,0 32.46637,0 32.46637,0"
         id="path10"
         transform="matrix(0.9832786,0,0,1,2.8034143,0)" />
      <path
         style="fill:none;fill-opacity:0.419525;stroke:#000000;stroke-width:2;stroke-linecap:square;stroke-linejoin:round;stroke-opacity:1"
         d="m 163.67658,20.363518 c 0,0 0,18.250324 0,18.250324"
         id="path11" />
      <path
         style="fill:none;fill-opacity:0.419525;stroke:#000000;stroke-width:2;stroke-linecap:square;stroke-linejoin:round;stroke-opacity:1"
         d="m 163.77264,20.075355 c 0,0 11.04624,0 11.04624,0"
         id="path12" />
      <path
         style="fill:none;fill-opacity:0.419525;stroke:#000000;stroke-width:2;stroke-linecap:square;stroke-linejoin:round;stroke-opacity:1"
         d="m 174.81888,20.075355 c 0,0 0,67.430142 0,67.430142"
         id="path13"
         transform="matrix(1,0,0,0.9979248,0,0.0395852)" />
      <path
         style="fill:none;fill-opacity:0.419525;stroke:#000000;stroke-width:2;stroke-linecap:square;stroke-linejoin:round;stroke-opacity:1"
         d="m 173.08991,87.121279 c 0,0 16.52134,0 16.52134,0"
         id="path14"
         transform="translate(0.24013583,0.33619017)" />
      <path
         style="fill:none;fill-opacity:0.419525;stroke:#000000;stroke-width:2;stroke-linecap:square;stroke-linejoin:round;stroke-opacity:1"
         d="m 150.99741,110.94275 c 0,0 38.51779,0 38.51779,0"
         id="path15"
         transform="matrix(1.3185003,0,0,1,-60.679145,0)" />
      <path
         style="fill:none;fill-opacity:0.419525;stroke:#000000;stroke-width:2;stroke-linecap:square;stroke-linejoin:round;stroke-opacity:1"
         d="m 165.98189,87.505497 c 0,0 -29.39263,0 -29.39263,0"
         id="path16" />
      <path
         style="fill:none;fill-opacity:0.419525;stroke:#000000;stroke-width:2;stroke-linecap:square;stroke-linejoin:round;stroke-opacity:1"
         d="m 150.61319,38.80595 c 0,0 0,48.603492 0,48.603492"
         id="path17"
         transform="matrix(1,0,0,0.99050912,0,0.8390834)" />
      <path
         style="fill:none;fill-opacity:0.419525;stroke:#000000;stroke-width:2;stroke-linecap:square;stroke-linejoin:round;stroke-opacity:1"
         d="m 126.88777,20.555627 c 0,0 0,67.045924 0,67.045924"
         id="path18"
         transform="matrix(1,0,0,0.99458963,0,0.10580309)" />
      <path
         style="fill:none;fill-opacity:0.419525;stroke:#000000;stroke-width:2;stroke-linecap:square;stroke-linejoin:round;stroke-opacity:1"
         d="m 117.66656,86.833116 c 0,0 -30.257118,0 -30.257118,0"
         id="path20"
         transform="matrix(0.98362226,0,0,1,2.0395449,0.06650688)" />
      <path
         style="fill:none;fill-opacity:0.419525;stroke:#000000;stroke-width:2;stroke-linecap:square;stroke-linejoin:round;stroke-opacity:1"
         d="m 102.77814,39.862548 c 0,0 0,45.913971 0,45.913971"
         id="path21" />
      <path
         style="fill:none;fill-opacity:0.419525;stroke:#000000;stroke-width:2;stroke-linecap:square;stroke-linejoin:round;stroke-opacity:1"
         d="m 79.436933,20.84379 c 0,0 0,66.853815 0,66.853815"
         id="path22"
         transform="matrix(1,0,0,0.98186438,0,0.35987935)" />
      <path
         style="fill:none;fill-opacity:0.419525;stroke:#000000;stroke-width:2;stroke-linecap:square;stroke-linejoin:round;stroke-opacity:1"
         d="m 54.174643,86.929171 c 0,0 15.464748,0 15.464748,0"
         id="path23"
         transform="matrix(0.96700061,0,0,1,2.3310567,0)" />
      <path
         style="fill:none;fill-opacity:0.419525;stroke:#000000;stroke-width:2;stroke-linecap:square;stroke-linejoin:round;stroke-opacity:1"
         d="m 150.90136,111.03881 c 0,0 0,48.12322 0,48.12322"
         id="path24" />
      <path
         style="fill:none;fill-opacity:0.419525;stroke:#000000;stroke-width:2;stroke-linecap:square;stroke-linejoin:round;stroke-opacity:1"
         d="m 150.90136,159.25808 c 0,0 -95.958282,0 -95.958282,0"
         id="path25" />
      <path
         style="fill:none;fill-opacity:0.419525;stroke:#000000;stroke-width:2;stroke-linecap:square;stroke-linejoin:round;stroke-opacity:1"
         d="m 54.654915,159.6423 c 0,0 0,-49.08376 0,-49.08376"
         id="path26"
         transform="matrix(1,0,0,0.99261003,0,0.80963344)" />
      <path
         style="fill:none;fill-opacity:0.419525;stroke:#000000;stroke-width:2;stroke-linecap:square;stroke-linejoin:round;stroke-opacity:1"
         d="m 117.85867,110.65459 c 0,0 -30.449228,0 -30.449228,0"
         id="path27"
         transform="matrix(0.94976472,0,0,1,4.884168,0)" />
      <path
         style="fill:none;fill-opacity:0.419525;stroke:#000000;stroke-width:2;stroke-linecap:square;stroke-linejoin:round;stroke-opacity:1"
         d="m 102.77814,111.13486 c 0,0 0,47.16268 0,47.16268"
         id="path28" />
      <path
         style="fill:none;fill-opacity:0.419525;stroke:#000000;stroke-width:2;stroke-linecap:square;stroke-linejoin:round;stroke-opacity:1"
         d="m 126.4075,111.13486 c 0,0 0,47.16268 0,47.16268"
         id="path29"
         transform="matrix(1,0,0,1.0069077,0,-1.1003871)" />
      <path
         style="fill:none;fill-opacity:0.419525;stroke:#000000;stroke-width:2;stroke-linecap:square;stroke-linejoin:round;stroke-opacity:1"
         d="m 78.476389,111.32697 c 0,0 0,46.77846 0,46.77846"
         id="path30"
         transform="matrix(1,0,0,1.0153168,0,-2.4369778)" />
      <path
         style="fill:none;fill-opacity:0.419525;stroke:#000000;stroke-width:2;stroke-linecap:square;stroke-linejoin:round;stroke-opacity:1"
         d="m 54.366752,110.07826 c 0,0 15.75291,0 15.75291,0"
         id="path31"
         transform="matrix(0.95316101,0,0,1,2.7878077,0.4754447)" />
    </g>
  </g>
</svg>
