<?xml version="1.0" encoding="UTF-8" standalone="no"?>
<!-- Created with Inkscape (http://www.inkscape.org/) -->

<svg
   width="118.60996mm"
   height="109.34362mm"
   viewBox="0 0 118.60996 109.34362"
   version="1.1"
   id="svg1"
   xml:space="preserve"
   xmlns="http://www.w3.org/2000/svg"
   xmlns:svg="http://www.w3.org/2000/svg"><defs
     id="defs1" /><g
     id="layer3"
     transform="translate(-43.377098,-92.652972)"><path
       style="display:inline;fill:#000000;fill-opacity:0.0546584;stroke:none;stroke-width:2;stroke-linecap:square;stroke-linejoin:round"
       d="M 83.759378,129.67335 H 121.989 v 71.65653 H 84.143595 Z"
       id="sala2" /><path
       style="display:inline;fill:#000000;fill-opacity:0.0347826;stroke:none;stroke-width:2;stroke-linecap:square;stroke-linejoin:round"
       d="m 122.75744,129.48124 h 37.46119 v 70.50388 H 121.989 Z"
       id="sala1" /></g><g
     id="layer2"
     transform="translate(-43.377098,-92.652972)"><path
       style="fill:none;fill-opacity:0.0438185;stroke:#000000;stroke-width:2;stroke-linecap:square;stroke-linejoin:round"
       d="m 45.049482,93.652974 c 0,0 0,35.924316 0,35.924316"
       id="path1" /><path
       style="fill:none;fill-opacity:0.0438185;stroke:#000000;stroke-width:2;stroke-linecap:square;stroke-linejoin:round"
       d="m 45.24159,129.57729 c 0,0 37.941462,0 37.941462,0"
       id="path2" /><path
       style="fill:none;fill-opacity:0.0438185;stroke:#000000;stroke-width:2;stroke-linecap:square;stroke-linejoin:round"
       d="m 44.377101,145.61837 c 0,0 0,37.46119 0,37.46119"
       id="path3" /><path
       style="fill:none;fill-opacity:0.0438185;stroke:#000000;stroke-width:2;stroke-linecap:square;stroke-linejoin:round"
       d="m 45.145536,200.94566 c 0,0 61.282664,0 61.282664,0"
       id="path4" /><path
       style="fill:none;fill-opacity:0.0438185;stroke:#000000;stroke-width:2;stroke-linecap:square;stroke-linejoin:round"
       d="m 83.183052,130.24967 c 0,0 0,70.50388 0,70.50388"
       id="path5" /><path
       style="fill:none;fill-opacity:0.0438185;stroke:#000000;stroke-width:2;stroke-linecap:square;stroke-linejoin:round"
       d="m 58.97736,94.325354 c 0,0 102.0097,0 102.0097,0"
       id="path6" /><path
       style="fill:none;fill-opacity:0.0438185;stroke:#000000;stroke-width:2;stroke-linecap:square;stroke-linejoin:round"
       d="m 160.98706,95.093789 c 0,0 0,105.851871 0,105.851871"
       id="path7"
       transform="matrix(1,0,0,1.0004723,0,-0.0444423)" /><path
       style="fill:none;fill-opacity:0.0438185;stroke:#000000;stroke-width:2;stroke-linecap:square;stroke-linejoin:round"
       d="m 137.35769,200.17723 c 0,0 22.0925,0 22.0925,0"
       id="path8"
       transform="translate(0.13584134,0.81504805)" /><path
       style="fill:none;fill-opacity:0.0438185;stroke:#000000;stroke-width:2;stroke-linecap:square;stroke-linejoin:round"
       d="m 160.60284,129.86546 c 0,0 -23.62936,0 -23.62936,0"
       id="path9" /><path
       style="fill:none;fill-opacity:0.0438185;stroke:#000000;stroke-width:2;stroke-linecap:square;stroke-linejoin:round"
       d="m 123.33376,129.67335 c 0,0 -24.782015,0 -24.782015,0"
       id="path10" /><path
       style="fill:none;fill-opacity:0.0438185;stroke:#000000;stroke-width:2;stroke-linecap:square;stroke-linejoin:round"
       d="m 121.60478,144.0815 c 0,0 0,57.6326 0,57.6326"
       id="path11"
       transform="matrix(1,0,0,1.2139224,0,-44.248048)" /><path
       style="fill:none;fill-opacity:0.0438185;stroke:#000000;stroke-width:2;stroke-linecap:square;stroke-linejoin:round"
       d="m 119.40454,200.7735 c 0,0 5.63741,0 5.63741,0"
       id="path12"
       transform="translate(-0.06792067,0.20376201)" /></g></svg>
