<?xml version="1.0" encoding="UTF-8" standalone="no"?>
<!-- Created with Inkscape (http://www.inkscape.org/) -->

<svg
   width="297.32242mm"
   height="215.71237mm"
   viewBox="0 0 297.32242 215.71237"
   version="1.1"
   id="svg1"
   xml:space="preserve"
   xmlns="http://www.w3.org/2000/svg"
   xmlns:svg="http://www.w3.org/2000/svg"><defs
     id="defs1" /><g
     id="layer2"
     transform="translate(-7.4527807,-13.127498)"><path
       style="fill:none;fill-opacity:0;stroke:#000000;stroke-width:2;stroke-linecap:square;stroke-linejoin:round;stroke-opacity:1"
       d="m 8.4527812,104.1229 c 0,0 0,-65.701167 0,-65.701167"
       id="path1"
       transform="matrix(1,0,0,1.1971371,0,-6.7998863)" /><path
       style="fill:none;fill-opacity:0;stroke:#000000;stroke-width:2;stroke-linecap:square;stroke-linejoin:round;stroke-opacity:1"
       d="m 9.1013697,38.986465 c 0,0 22.0742173,0 22.0742173,0"
       id="path2" /><path
       style="fill:none;fill-opacity:0;stroke:#000000;stroke-width:2;stroke-linecap:square;stroke-linejoin:round;stroke-opacity:1"
       d="m 27.847475,39.258147 c 0,0 0,-24.994806 0,-24.994806"
       id="path3"
       transform="matrix(1,0,0,0.96993367,0,0.73497021)" /><path
       style="fill:none;fill-opacity:0;stroke:#000000;stroke-width:2;stroke-linecap:square;stroke-linejoin:round;stroke-opacity:1"
       d="m 27.575793,14.602944 c 0,0 29.545491,0 29.545491,0"
       id="path4"
       transform="matrix(0.98173032,0,0,1,0.86974855,0)" /><path
       style="fill:none;fill-opacity:0;stroke:#000000;stroke-width:2;stroke-linecap:square;stroke-linejoin:round;stroke-opacity:1"
       d="m 56.91752,14.670865 c 0,0 0,24.383521 0,24.383521"
       id="path5" /><path
       style="fill:none;fill-opacity:0;stroke:#000000;stroke-width:2;stroke-linecap:square;stroke-linejoin:round;stroke-opacity:1"
       d="m 56.91752,39.393989 c 0,0 38.443101,0.13584 38.443101,0.13584"
       id="path6" /><path
       style="fill:none;fill-opacity:0;stroke:#000000;stroke-width:2;stroke-linecap:square;stroke-linejoin:round;stroke-opacity:1"
       d="m 93.458841,39.59775 c 0,0 0,-25.198568 0,-25.198568"
       id="path7"
       transform="matrix(1,0,0,0.965039,0,0.80805228)" /><path
       style="fill:none;fill-opacity:0;stroke:#000000;stroke-width:2;stroke-linecap:square;stroke-linejoin:round;stroke-opacity:1"
       d="m 93.458841,14.670865 c 0,0 28.594599,0 28.594599,0"
       id="path8" /><path
       style="fill:none;fill-opacity:0;stroke:#000000;stroke-width:2;stroke-linecap:square;stroke-linejoin:round;stroke-opacity:1"
       d="m 122.32513,14.127499 c 0,0 0,25.130648 0,25.130648"
       id="path9"
       transform="matrix(1,0,0,0.95976662,0,1.1394497)" /><path
       style="fill:none;fill-opacity:0;stroke:#000000;stroke-width:2;stroke-linecap:square;stroke-linejoin:round;stroke-opacity:1"
       d="m 106.02417,39.054386 c 0,0 55.2195,0 55.2195,0"
       id="path10" /><path
       style="fill:none;fill-opacity:0;stroke:#000000;stroke-width:2;stroke-linecap:square;stroke-linejoin:round;stroke-opacity:1"
       d="m 157.91556,39.801514 c 0,0 0,-25.538173 0,-25.538173"
       id="path11"
       transform="matrix(1,0,0,0.95675003,0,0.81377497)" /><path
       style="fill:none;fill-opacity:0;stroke:#000000;stroke-width:2;stroke-linecap:square;stroke-linejoin:round;stroke-opacity:1"
       d="m 157.98348,14.467103 c 0,0 29.81717,0 29.81717,0"
       id="path12" /><path
       style="fill:none;fill-opacity:0;stroke:#000000;stroke-width:2;stroke-linecap:square;stroke-linejoin:round;stroke-opacity:1"
       d="m 187.73273,14.670865 c 0,0 0,24.519361 0,24.519361"
       id="path13"
       transform="matrix(1,0,0,0.98822835,0,0.16092861)" /><path
       style="fill:none;fill-opacity:0;stroke:#000000;stroke-width:2;stroke-linecap:square;stroke-linejoin:round;stroke-opacity:1"
       d="m 173.53731,38.986465 c 0,0 13.92374,0 13.92374,0"
       id="path14"
       transform="matrix(3.5030857,0,0,1,-432.47602,0)" /><path
       style="fill:none;fill-opacity:0;stroke:#000000;stroke-width:2;stroke-linecap:square;stroke-linejoin:round;stroke-opacity:1"
       d="m 223.39108,39.46191 c 0,0 0,-25.470252 0,-25.470252"
       id="path15"
       transform="matrix(1,0,0,0.9431685,0,1.7561458)" /><path
       style="fill:none;fill-opacity:0;stroke:#000000;stroke-width:2;stroke-linecap:square;stroke-linejoin:round;stroke-opacity:1"
       d="m 223.39108,15.010468 c 0,0 29.40965,0 29.40965,0"
       id="path16" /><path
       style="fill:none;fill-opacity:0;stroke:#000000;stroke-width:2;stroke-linecap:square;stroke-linejoin:round;stroke-opacity:1"
       d="m 252.80073,15.21423 c 0,0 0,24.24768 0,24.24768"
       id="path17" /><path
       style="fill:none;fill-opacity:0;stroke:#000000;stroke-width:2;stroke-linecap:square;stroke-linejoin:round;stroke-opacity:1"
       d="m 249.0651,39.59775 c 0,0 43.26545,0 43.26545,0"
       id="path18" /><path
       style="fill:none;fill-opacity:0;stroke:#000000;stroke-width:2;stroke-linecap:square;stroke-linejoin:round;stroke-opacity:1"
       d="m 288.73077,14.127499 c 0,0 0,25.40233 0,25.40233"
       id="path19" /><path
       style="fill:none;fill-opacity:0;stroke:#000000;stroke-width:2;stroke-linecap:square;stroke-linejoin:round;stroke-opacity:1"
       d="m 288.66285,14.263341 c 0,0 14.60293,0 14.60293,0"
       id="path20" /><path
       style="fill:none;fill-opacity:0;stroke:#000000;stroke-width:2;stroke-linecap:square;stroke-linejoin:round;stroke-opacity:1"
       d="m 303.3337,14.263341 c 0,0 0,90.538249 0,90.538249"
       id="path21"
       transform="matrix(1,0,0,0.99119231,0,0.11681937)" /><path
       style="fill:none;fill-opacity:0;stroke:#000000;stroke-width:2;stroke-linecap:square;stroke-linejoin:round;stroke-opacity:1"
       d="m 282.9575,104.12239 c 0,0 20.24036,0 20.24036,0"
       id="path22"
       transform="matrix(0.98945244,0,0,1,3.3135673,0)" /><path
       style="fill:none;fill-opacity:0;stroke:#000000;stroke-width:2;stroke-linecap:square;stroke-linejoin:round;stroke-opacity:1"
       d="m 272.09019,104.46199 c 0,0 -19.62906,0 -19.62906,0"
       id="path23" /><path
       style="fill:none;fill-opacity:0;stroke:#000000;stroke-width:2;stroke-linecap:square;stroke-linejoin:round;stroke-opacity:1"
       d="m 283.36504,104.73367 c 0,0 0,32.1944 0,32.1944"
       id="path24" /><path
       style="fill:none;fill-opacity:0;stroke:#000000;stroke-width:2;stroke-linecap:square;stroke-linejoin:round;stroke-opacity:1"
       d="m 283.50088,137.06391 c 0,0 6.24869,0 6.24869,0"
       id="path25" /><path
       style="fill:none;fill-opacity:0;stroke:#000000;stroke-width:2;stroke-linecap:square;stroke-linejoin:round;stroke-opacity:1"
       d="m 300.75272,136.52055 c 0,0 16.84433,0 16.84433,0"
       id="path26"
       transform="matrix(0.26652439,0,0,1,219.86131,0)" /><path
       style="fill:none;fill-opacity:0;stroke:#000000;stroke-width:2;stroke-linecap:square;stroke-linejoin:round;stroke-opacity:1"
       d="m 303.74124,137.87896 c 0,0 0,2.85267 0,2.85267"
       id="path27" /><path
       style="fill:none;fill-opacity:0;stroke:#000000;stroke-width:2;stroke-linecap:square;stroke-linejoin:round;stroke-opacity:1"
       d="m 303.74124,149.69716 c 0,0 0,78.24461 0,78.24461"
       id="path28"
       transform="matrix(1,0,0,0.98802981,0,1.7799335)" /><path
       style="fill:none;fill-opacity:0;stroke:#000000;stroke-width:2;stroke-linecap:square;stroke-linejoin:round;stroke-opacity:1"
       d="m 303.74124,226.99088 c 0,0 -15.4859,0 -15.4859,0"
       id="path29"
       transform="matrix(0.95605404,0,0,1,13.392146,0)" /><path
       style="fill:none;fill-opacity:0;stroke:#000000;stroke-width:2;stroke-linecap:square;stroke-linejoin:round;stroke-opacity:1"
       d="m 289.07036,202.26775 c 0,0 0,24.45145 0,24.45145"
       id="path30" /><path
       style="fill:none;fill-opacity:0;stroke:#000000;stroke-width:2;stroke-linecap:square;stroke-linejoin:round;stroke-opacity:1"
       d="m 292.60225,202.13191 c 0,0 -40.20904,0 -40.20904,0"
       id="path31"
       transform="matrix(1.0341352,0,0,1,-10.022178,0)" /><path
       style="fill:none;fill-opacity:0;stroke:#000000;stroke-width:2;stroke-linecap:square;stroke-linejoin:round;stroke-opacity:1"
       d="m 252.93658,202.13191 c 0,0 0,26.08154 0,26.08154"
       id="path32"
       transform="matrix(1,0,0,0.9863178,0,2.7519277)" /><path
       style="fill:none;fill-opacity:0;stroke:#000000;stroke-width:2;stroke-linecap:square;stroke-linejoin:round;stroke-opacity:1"
       d="m 253.20826,227.80593 c 0,0 -30.5643,0 -30.5643,0"
       id="path33"
       transform="matrix(0.96863978,0,0,1,7.7318907,0)" /><path
       style="fill:none;fill-opacity:0;stroke:#000000;stroke-width:2;stroke-linecap:square;stroke-linejoin:round;stroke-opacity:1"
       d="m 223.45901,202.26775 c 0,0 0,24.72313 0,24.72313"
       id="path34" /><path
       style="fill:none;fill-opacity:0;stroke:#000000;stroke-width:2;stroke-linecap:square;stroke-linejoin:round;stroke-opacity:1"
       d="m 226.99088,202.13191 c 0,0 -44.14844,0 -44.14844,0"
       id="path35" /><path
       style="fill:none;fill-opacity:0;stroke:#000000;stroke-width:2;stroke-linecap:square;stroke-linejoin:round;stroke-opacity:1"
       d="m 187.86857,201.31687 c 0,0 0,26.6249 0,26.6249"
       id="path36"
       transform="matrix(1,0,0,0.95556271,0,9.7660282)" /><path
       style="fill:none;fill-opacity:0;stroke:#000000;stroke-width:2;stroke-linecap:square;stroke-linejoin:round;stroke-opacity:1"
       d="m 158.93437,227.53424 c 0,0 29.07004,0 29.07004,0"
       id="path37"
       transform="matrix(1.0306047,0,0,1,-5.9202654,0)" /><path
       style="fill:none;fill-opacity:0;stroke:#000000;stroke-width:2;stroke-linecap:square;stroke-linejoin:round;stroke-opacity:1"
       d="m 172.65434,226.99088 c 0,0 0,-89.3836 0,-89.3836"
       id="path38" /><path
       style="fill:none;fill-opacity:0;stroke:#000000;stroke-width:2;stroke-linecap:square;stroke-linejoin:round;stroke-opacity:1"
       d="m 161.51535,202.26775 c 0,0 -42.24665,0 -42.24665,0"
       id="path39" /><path
       style="fill:none;fill-opacity:0;stroke:#000000;stroke-width:2;stroke-linecap:square;stroke-linejoin:round;stroke-opacity:1"
       d="m 122.80057,202.4036 c 0,0 0,24.9948 0,24.9948"
       id="path40" /><path
       style="fill:none;fill-opacity:0;stroke:#000000;stroke-width:2;stroke-linecap:square;stroke-linejoin:round;stroke-opacity:1"
       d="m 92.643795,227.80593 c 0,0 30.020935,0 30.020935,0"
       id="path41" /><path
       style="fill:none;fill-opacity:0;stroke:#000000;stroke-width:2;stroke-linecap:square;stroke-linejoin:round;stroke-opacity:1"
       d="m 108.40139,137.19975 c 0,0 0,90.06281 0,90.06281"
       id="path42" /><path
       style="fill:none;fill-opacity:0;stroke:#000000;stroke-width:2;stroke-linecap:square;stroke-linejoin:round;stroke-opacity:1"
       d="m 92.643795,228.07761 c 0,0 0,-25.40233 0,-25.40233"
       id="path43"
       transform="matrix(1,0,0,0.99132474,0,1.7495856)" /><path
       style="fill:none;fill-opacity:0;stroke:#000000;stroke-width:2;stroke-linecap:square;stroke-linejoin:round;stroke-opacity:1"
       d="m 96.447352,202.13191 c 0,0 -21.327091,0 -21.327091,0"
       id="path44"
       transform="translate(-0.13584134,0.27168268)" /><path
       style="fill:none;fill-opacity:0;stroke:#000000;stroke-width:2;stroke-linecap:square;stroke-linejoin:round;stroke-opacity:1"
       d="m 74.848579,171.56761 c 0,0 0,29.74926 0,29.74926"
       id="path45" /><path
       style="fill:none;fill-opacity:0;stroke:#000000;stroke-width:2;stroke-linecap:square;stroke-linejoin:round;stroke-opacity:1"
       d="m 97.262398,170.34504 c 0,0 -43.197544,0 -43.197544,0"
       id="path46" /><path
       style="fill:none;fill-opacity:0;stroke:#000000;stroke-width:2;stroke-linecap:square;stroke-linejoin:round;stroke-opacity:1"
       d="m 75.527785,202.4036 c 0,0 -65.339685,0 -65.339685,0"
       id="path47" /><path
       style="fill:none;fill-opacity:0;stroke:#000000;stroke-width:2;stroke-linecap:square;stroke-linejoin:round;stroke-opacity:1"
       d="m 10.323942,138.0148 c 0,0 0,63.57375 0,63.57375"
       id="path48" /><path
       style="fill:none;fill-opacity:0;stroke:#000000;stroke-width:2;stroke-linecap:square;stroke-linejoin:round;stroke-opacity:1"
       d="m 10.323942,136.79223 c 0,0 32.873605,0 32.873605,0"
       id="path49" /><path
       style="fill:none;fill-opacity:0;stroke:#000000;stroke-width:2;stroke-linecap:square;stroke-linejoin:round;stroke-opacity:1"
       d="m 55.287425,136.52055 c 0,0 35.047065,0 35.047065,0"
       id="path50"
       transform="matrix(0.99358323,0,0,1,0.58607205,0)" /><path
       style="fill:none;fill-opacity:0;stroke:#000000;stroke-width:2;stroke-linecap:square;stroke-linejoin:round;stroke-opacity:1"
       d="M 9.6447352,118.45365 Z"
       id="path53" /><path
       style="fill:none;fill-opacity:0;stroke:#000000;stroke-width:2;stroke-linecap:square;stroke-linejoin:round;stroke-opacity:1"
       d="m 62.622858,118.04613 c 0,0 -52.8422815,0 -52.8422815,0"
       id="path54"
       transform="matrix(0.99566535,0,0,1,0.27578311,0)" /><path
       style="fill:none;fill-opacity:0;stroke:#000000;stroke-width:2;stroke-linecap:square;stroke-linejoin:round;stroke-opacity:1"
       d="m 73.082641,118.18197 c 0,0 89.111919,0 89.111919,0"
       id="path55" /><path
       style="fill:none;fill-opacity:0;stroke:#000000;stroke-width:2;stroke-linecap:square;stroke-linejoin:round;stroke-opacity:1"
       d="m 172.92603,117.91028 c 0,0 0,-77.42956 0,-77.42956"
       id="path56" /><path
       style="fill:none;fill-opacity:0;stroke:#000000;stroke-width:2;stroke-linecap:square;stroke-linejoin:round;stroke-opacity:1"
       d="m 189.90619,104.19031 c 0,0 48.08784,0 48.08784,0"
       id="path57" /><path
       style="fill:none;fill-opacity:0;stroke:#000000;stroke-width:2;stroke-linecap:square;stroke-linejoin:round;stroke-opacity:1"
       d="M 172.65434,104.73367 Z"
       id="path58" /><path
       style="fill:none;fill-opacity:0;stroke:#000000;stroke-width:2;stroke-linecap:square;stroke-linejoin:round;stroke-opacity:1"
       d="m 180.12562,104.19031 c 0,0 -6.38455,0 -6.38455,0"
       id="path59" /><path
       style="fill:none;fill-opacity:0;stroke:#000000;stroke-width:2;stroke-linecap:square;stroke-linejoin:round;stroke-opacity:1"
       d="m 238.12987,14.535023 c 0,0 0,89.519447 0,89.519447"
       id="path60"
       transform="matrix(1,0,0,0.99406284,0,0.62372493)" /><path
       style="fill:none;fill-opacity:0;stroke:#000000;stroke-width:2;stroke-linecap:square;stroke-linejoin:round;stroke-opacity:1"
       d="m 270.7318,39.665671 c 0,0 0,64.117109 0,64.117109"
       id="path61" /><path
       style="fill:none;fill-opacity:0;stroke:#000000;stroke-width:2;stroke-linecap:square;stroke-linejoin:round;stroke-opacity:1"
       d="m 238.02264,136.68531 c 0,0 0,90.8674 0,90.8674"
       id="path62" /><path
       style="fill:none;fill-opacity:0;stroke:#000000;stroke-width:2;stroke-linecap:square;stroke-linejoin:round;stroke-opacity:1"
       d="m 183.65588,136.97348 c 0,0 39.47833,0 39.47833,0"
       id="path63" /><path
       style="fill:none;fill-opacity:0;stroke:#000000;stroke-width:2;stroke-linecap:square;stroke-linejoin:round;stroke-opacity:1"
       d="m 205.26811,137.26164 c 0,0 0,64.06824 0,64.06824"
       id="path64" /><path
       style="fill:none;fill-opacity:0;stroke:#000000;stroke-width:2;stroke-linecap:square;stroke-linejoin:round;stroke-opacity:1"
       d="m 161.51535,136.92807 c 0,0 -43.33338,0 -43.33338,0"
       id="path65" /><path
       style="fill:none;fill-opacity:0;stroke:#000000;stroke-width:2;stroke-linecap:square;stroke-linejoin:round;stroke-opacity:1"
       d="m 140.05242,137.19975 c 0,0 0,64.93216 0,64.93216"
       id="path66" /><path
       style="fill:none;fill-opacity:0;stroke:#000000;stroke-width:2;stroke-linecap:square;stroke-linejoin:round;stroke-opacity:1"
       d="m 105.68456,90.198651 c 0,0 0,26.760739 0,26.760739"
       id="path67" /><path
       style="fill:none;fill-opacity:0;stroke:#000000;stroke-width:2;stroke-linecap:square;stroke-linejoin:round;stroke-opacity:1"
       d="m 116.95939,90.062808 c 0,0 55.28743,0 55.28743,0"
       id="path68" /><path
       style="fill:none;fill-opacity:0;stroke:#000000;stroke-width:2;stroke-linecap:square;stroke-linejoin:round;stroke-opacity:1"
       d="m 140.18826,39.529829 c 0,0 0,29.749255 0,29.749255"
       id="path69" /><path
       style="fill:none;fill-opacity:0;stroke:#000000;stroke-width:2;stroke-linecap:square;stroke-linejoin:round;stroke-opacity:1"
       d="m 132.03778,78.516294 c 0,0 8.49009,-8.490082 8.49009,-8.490082"
       id="path70" /><path
       style="fill:none;fill-opacity:0;stroke:#000000;stroke-width:2;stroke-linecap:square;stroke-linejoin:round;stroke-opacity:1"
       d="m 117.50276,78.923818 c 0,0 13.99166,0 13.99166,0"
       id="path71" /><path
       style="fill:none;fill-opacity:0;stroke:#000000;stroke-width:2;stroke-linecap:square;stroke-linejoin:round;stroke-opacity:1"
       d="m 107.4505,39.937353 c 0,0 0,38.714783 0,38.714783"
       id="path72" /><path
       style="fill:none;fill-opacity:0;stroke:#000000;stroke-width:2;stroke-linecap:square;stroke-linejoin:round;stroke-opacity:1"
       d="m 75.256103,40.209036 c 0,0 0,37.492212 0,37.492212"
       id="path73" /><path
       style="fill:none;fill-opacity:0;stroke:#000000;stroke-width:2;stroke-linecap:square;stroke-linejoin:round;stroke-opacity:1"
       d="m 97.669923,78.380454 c 0,0 -44.55596,0 -44.55596,0"
       id="path74" /><path
       style="fill:none;fill-opacity:0;stroke:#000000;stroke-width:2;stroke-linecap:square;stroke-linejoin:round;stroke-opacity:1"
       d="m 41.974973,15.078389 c 0,0 0,63.302065 0,63.302065"
       id="path75" /><path
       style="fill:none;fill-opacity:0;stroke:#000000;stroke-width:2;stroke-linecap:square;stroke-linejoin:round;stroke-opacity:1"
       d="m 10.1881,88.432713 c 0,0 19.696995,0 19.696995,0"
       id="path76" /><path
       style="fill:none;fill-opacity:0;stroke:#000000;stroke-width:2;stroke-linecap:square;stroke-linejoin:round;stroke-opacity:1"
       d="m 42.925865,88.568553 c 0,0 8.422161,0 8.422161,0"
       id="path77" /><path
       style="fill:none;fill-opacity:0;stroke:#000000;stroke-width:2;stroke-linecap:square;stroke-linejoin:round;stroke-opacity:1"
       d="m 42.790022,88.840237 c 0,0 0,15.485913 0,15.485913"
       id="path78" /><path
       style="fill:none;fill-opacity:0;stroke:#000000;stroke-width:2;stroke-linecap:square;stroke-linejoin:round;stroke-opacity:1"
       d="m 58.140094,98.077447 c 0,0 4.355846,7.544553 4.355846,7.544553"
       id="path79" /><path
       style="fill:none;fill-opacity:0;stroke:#000000;stroke-width:2;stroke-linecap:square;stroke-linejoin:round;stroke-opacity:1"
       d="m 62.487015,105.54872 c 0,0 0,10.86731 0,10.86731"
       id="path80" /><path
       style="fill:none;fill-opacity:0;stroke:#000000;stroke-width:2;stroke-linecap:square;stroke-linejoin:round;stroke-opacity:1"
       d="m 270.7318,201.31687 c 0,0 0,-47.27279 0,-47.27279"
       id="path81" /><path
       style="fill:none;fill-opacity:0;stroke:#000000;stroke-width:2;stroke-linecap:square;stroke-linejoin:round;stroke-opacity:1"
       d="m 260.13617,153.90824 c 0,0 -20.78373,0 -20.78373,0"
       id="path82" /><path
       style="fill:none;fill-opacity:0;stroke:#000000;stroke-width:2;stroke-linecap:square;stroke-linejoin:round;stroke-opacity:1"
       d="m 302.38282,153.90824 c 0,0 -20.51204,0 -20.51204,0"
       id="path83" /><path
       style="fill:none;fill-opacity:0;stroke:#000000;stroke-width:2;stroke-linecap:square;stroke-linejoin:round;stroke-opacity:1"
       d="m 157.84764,202.67528 c 0,0 0,24.3156 0,24.3156"
       id="path84" /><path
       style="fill:none;fill-opacity:0;stroke:#000000;stroke-width:2;stroke-linecap:square;stroke-linejoin:round;stroke-opacity:1"
       d="m 55.519404,137.5498 c 0,0 0,30.73739 0,30.73739"
       id="path85"
       transform="matrix(1,0,0,1.0217845,0,-2.9746665)" /><path
       style="fill:none;fill-opacity:0;stroke:#000000;stroke-width:2;stroke-linecap:square;stroke-linejoin:round;stroke-opacity:1"
       d="m 41.879689,137.5498 c 0,0 0,22.0925 0,22.0925"
       id="path86" /><path
       style="fill:none;fill-opacity:0;stroke:#000000;stroke-width:2;stroke-linecap:square;stroke-linejoin:round;stroke-opacity:1"
       d="m 11.142303,170.97671 c 0,0 32.274255,0 32.274255,0"
       id="path87" /><path
       style="fill:none;fill-opacity:0.0438185;stroke:#000000;stroke-width:2;stroke-linecap:square;stroke-linejoin:round;stroke-opacity:1"
       d="m 90.742015,136.65639 c 0,0 0,33.55281 0,33.55281"
       id="path105" /></g><g
     id="layer3"
     transform="translate(-7.4527807,-13.127498)"><path
       style="fill:#000000;fill-opacity:0.0438185;stroke:none;stroke-width:2;stroke-linecap:square;stroke-linejoin:round;stroke-opacity:1"
       d="M 8.5488356,88.658149 H 51.485122 L 61.88217,106.66636 v 11.57652 H 8.6448899 Z"
       id="sala17" /><path
       style="fill:#000000;fill-opacity:0.0438185;stroke:none;stroke-width:2;stroke-linecap:square;stroke-linejoin:round;stroke-opacity:1"
       d="m 8.9330529,87.601551 c 0.3842173,-4.418499 0,-47.835058 0,-47.835058 H 28.528137 V 14.504204 h 13.54366 v 73.865782 z"
       id="sala16" /><path
       style="fill:#000000;fill-opacity:0.0438185;stroke:none;stroke-width:2;stroke-linecap:square;stroke-linejoin:round;stroke-opacity:1"
       d="m 42.456015,78.284281 h 32.37031 l 0.09605,-38.902005 H 56.191784 V 14.504204 H 42.648123 Z"
       id="sala15" /><path
       style="fill:#000000;fill-opacity:0.0438185;stroke:none;stroke-width:2;stroke-linecap:square;stroke-linejoin:round;stroke-opacity:1"
       d="M 75.978977,77.996118 H 106.90847 V 38.709896 H 121.989 V 14.600258 H 93.749028 V 38.902005 H 75.690814 Z"
       id="sala14" /><path
       style="fill:#000000;fill-opacity:0.0438185;stroke:none;stroke-width:2;stroke-linecap:square;stroke-linejoin:round;stroke-opacity:1"
       d="m 108.06112,39.286222 v 39.47833 h 24.01359 l 8.45278,-8.452781 V 39.574385 Z"
       id="sala13" /><path
       style="fill:#000000;fill-opacity:0.0438185;stroke:none;stroke-width:2;stroke-linecap:square;stroke-linejoin:round;stroke-opacity:1"
       d="m 141.00776,39.094113 h 17.48189 V 15.176584 h 29.20051 v 23.149095 h -15.5608 V 89.618692 H 116.3218 v -10.85414 h 15.46474 l 8.88503,-8.885025 z"
       id="sala12" /><path
       style="fill:#000000;fill-opacity:0.0438185;stroke:none;stroke-width:2;stroke-linecap:square;stroke-linejoin:round;stroke-opacity:1"
       d="m 106.23609,90.387127 h 66.37354 v 27.471543 h -66.46959 z"
       id="sala11" /><path
       style="fill:#000000;fill-opacity:0.0438185;stroke:none;stroke-width:2;stroke-linecap:square;stroke-linejoin:round;stroke-opacity:1"
       d="m 10.758085,137.16559 v 33.2348 h 30.545278 v -33.61902 z"
       id="sala10" /><path
       style="fill:#000000;fill-opacity:0.0438185;stroke:none;stroke-width:2;stroke-linecap:square;stroke-linejoin:round;stroke-opacity:1"
       d="m 10.950194,170.97671 v 31.50582 h 63.395859 v -31.89004 z"
       id="sala9" /><path
       style="fill:#000000;fill-opacity:0.0438185;stroke:none;stroke-width:2;stroke-linecap:square;stroke-linejoin:round;stroke-opacity:1"
       d="m 108.5414,137.16559 h 31.1216 v 64.3564 h -17.57794 v 25.55045 h -13.44761 z"
       id="sala8" /><path
       style="fill:#000000;fill-opacity:0.0438185;stroke:none;stroke-width:2;stroke-linecap:square;stroke-linejoin:round;stroke-opacity:1"
       d="m 140.43143,137.35769 h 31.69793 v 89.42659 H 157.337 v -24.3978 h -17.00162 z"
       id="sala7" /><path
       style="fill:#000000;fill-opacity:0.0438185;stroke:none;stroke-width:2;stroke-linecap:square;stroke-linejoin:round;stroke-opacity:1"
       d="m 173.18596,137.16559 h 31.79398 v 64.3564 h -17.77005 v 25.4544 h -13.73577 z"
       id="sala6" /><path
       style="fill:#000000;fill-opacity:0.0438185;stroke:none;stroke-width:2;stroke-linecap:square;stroke-linejoin:round;stroke-opacity:1"
       d="m 238.40685,154.35931 h 31.60187 v 47.25873 h -17.57793 v 26.41494 h -14.02394 z"
       id="sala5" /><path
       style="fill:#000000;fill-opacity:0.0438185;stroke:none;stroke-width:2;stroke-linecap:square;stroke-linejoin:round;stroke-opacity:1"
       d="m 271.35349,154.26326 h 31.79397 v 72.32891 H 289.4117 v -24.49386 h -18.82664 z"
       id="sala4" /><path
       style="fill:#000000;fill-opacity:0.0438185;stroke:none;stroke-width:2;stroke-linecap:square;stroke-linejoin:round;stroke-opacity:1"
       d="m 271.20723,103.78278 h 31.99063 V 14.535023 H 288.66285 V 39.122307 H 271.7506 Z"
       id="sala3" /><path
       style="fill:#000000;fill-opacity:0.0438185;stroke:none;stroke-width:2;stroke-linecap:square;stroke-linejoin:round;stroke-opacity:1"
       d="M 269.98467,103.78278 H 238.60531 V 15.14631 h 13.58414 v 24.247679 h 18.06689 z"
       id="sala2" /><path
       style="fill:#000000;fill-opacity:0.0438185;stroke:none;stroke-width:2;stroke-linecap:square;stroke-linejoin:round;stroke-opacity:1"
       d="m 172.99385,39.478331 h 51.19696 V 14.696313 h 13.35155 v 89.042367 h -64.26034 z"
       id="sala1" /></g></svg>
