<?xml version="1.0" encoding="UTF-8" standalone="no"?>
<!-- Created with Inkscape (http://www.inkscape.org/) -->

<svg
   width="173.04875mm"
   height="348.87619mm"
   viewBox="0 0 173.04875 348.87619"
   version="1.1"
   id="svg1"
   xml:space="preserve"
   xmlns="http://www.w3.org/2000/svg"
   xmlns:svg="http://www.w3.org/2000/svg"><defs
     id="defs1" /><g
     id="layer4"
     style="display:inline"
     transform="translate(-15.257196,-4.7392458)"><path
       style="fill:#000000;fill-opacity:0;stroke:#000000;stroke-width:2;stroke-linecap:square;stroke-linejoin:round;stroke-opacity:0"
       d="m 73.289455,267.22316 v 23.24515 l -23.72542,23.7254 H 17.097671 v -46.29817 z"
       id="sala7" /><path
       style="fill:#000000;fill-opacity:0;stroke:#000000;stroke-width:2;stroke-linecap:square;stroke-linejoin:round;stroke-opacity:0"
       d="m 74.346053,290.6604 12.102846,12.10286 -12.583118,12.58311 v 36.4046 h -56.76811 v -37.46119 h 33.330853 z"
       id="sala6" /><path
       style="fill:#000000;fill-opacity:0;stroke:#000000;stroke-width:2;stroke-linecap:square;stroke-linejoin:round;stroke-opacity:0"
       d="M 90.387127,302.4751 102.538,290.32422 127.07988,314.8661 h 32.46637 v 37.55726 H 102.68208 V 314.8661 Z"
       id="sala5" /><path
       style="fill:#000000;fill-opacity:0;stroke:#000000;stroke-width:2;stroke-linecap:square;stroke-linejoin:round;stroke-opacity:0"
       d="m 102.58603,267.03104 v 22.76489 l 24.97412,24.97412 h 31.9861 v -48.02716 z"
       id="sala4" /><path
       style="fill:#000000;fill-opacity:0;stroke:#000000;stroke-width:2;stroke-linecap:square;stroke-linejoin:round;stroke-opacity:0"
       d="m 159.45019,218.3315 v 47.54689 h -56.96022 v -47.25873 z"
       id="sala3" /><path
       style="fill:#000000;fill-opacity:0;stroke:#000000;stroke-width:2;stroke-linecap:square;stroke-linejoin:round;stroke-opacity:0"
       d="m 80.109313,77.804009 v 28.239971 h -7.204075 v 16.23318 H 17.097671 V 78.188226 Z"
       id="sala2" /><path
       style="fill:#000000;fill-opacity:0;stroke:#000000;stroke-width:2;stroke-linecap:square;stroke-linejoin:round;stroke-opacity:0"
       d="m 73.626005,218.36495 v 48.69911 H 17.116009 v -48.29158 z"
       id="sala1" /><path
       style="fill:#000000;fill-opacity:0;stroke:#000000;stroke-width:2;stroke-linecap:square;stroke-linejoin:round;stroke-opacity:0"
       d="M 138.0148,5.9770189 V 48.902881 h 48.35952 V 6.3845429 Z"
       id="sala8" /></g><g
     id="layer2"
     style="display:inline"
     transform="translate(-15.257196,-4.7392458)"><path
       style="fill:none;fill-opacity:1;stroke:#000000;stroke-width:2;stroke-linecap:square;stroke-linejoin:round;stroke-opacity:1"
       d="m 137.35769,5.7632599 c 0,0 49.66009,0 49.66009,0"
       id="path1"
       transform="matrix(0.99767581,0,0,1,0.31692132,0)" /><path
       style="fill:none;fill-opacity:1;stroke:#000000;stroke-width:2;stroke-linecap:square;stroke-linejoin:round;stroke-opacity:1"
       d="m 186.92173,5.6672056 c 0,0 0,171.9372544 0,171.9372544"
       id="path2"
       transform="matrix(1,0,0,0.99958582,0,0.0739738)" /><path
       style="fill:none;fill-opacity:1;stroke:#000000;stroke-width:2;stroke-linecap:square;stroke-linejoin:round;stroke-opacity:1"
       d="m 187.30595,176.83603 c 0,0 -59.07342,0 -59.07342,0"
       id="path3" /><path
       style="fill:none;fill-opacity:1;stroke:#000000;stroke-width:2;stroke-linecap:square;stroke-linejoin:round;stroke-opacity:1"
       d="m 138.41429,177.3163 c 0,0 0,40.24676 0,40.24676"
       id="path4" /><path
       style="fill:none;fill-opacity:1;stroke:#000000;stroke-width:2;stroke-linecap:square;stroke-linejoin:round;stroke-opacity:1"
       d="m 102.20181,217.94728 c 0,0 57.24838,0 57.24838,0"
       id="path5"
       transform="matrix(0.99189393,0,0,1,1.3006209,0)" /><path
       style="fill:none;fill-opacity:1;stroke:#000000;stroke-width:2;stroke-linecap:square;stroke-linejoin:round;stroke-opacity:1"
       d="m 159.83441,218.3315 c 0,0 0,133.99578 0,133.99578"
       id="path6" /><path
       style="fill:none;fill-opacity:1;stroke:#000000;stroke-width:2;stroke-linecap:square;stroke-linejoin:round;stroke-opacity:1"
       d="m 160.02652,352.5194 c 0,0 -143.409121,0 -143.409121,0"
       id="path7" /><path
       style="fill:none;fill-opacity:1;stroke:#000000;stroke-width:2;stroke-linecap:square;stroke-linejoin:round;stroke-opacity:1"
       d="m 16.617399,352.61544 c 0,0 0,-133.99578 0,-133.99578"
       id="path8" /><path
       style="fill:none;fill-opacity:1;stroke:#000000;stroke-width:2;stroke-linecap:square;stroke-linejoin:round;stroke-opacity:1"
       d="m 16.521345,218.3315 c 0,0 56.960219,0 56.960219,0"
       id="path9" /><path
       style="fill:none;fill-opacity:1;stroke:#000000;stroke-width:2;stroke-linecap:square;stroke-linejoin:round;stroke-opacity:1"
       d="m 45.817916,218.23544 c 0,0 0,-41.30336 0,-41.30336"
       id="path10" /><path
       style="fill:none;fill-opacity:1;stroke:#000000;stroke-width:2;stroke-linecap:square;stroke-linejoin:round;stroke-opacity:1"
       d="m 73.673673,177.02813 c 0,0 -57.344437,0 -57.344437,0"
       id="path11" /><path
       style="fill:none;fill-opacity:1;stroke:#000000;stroke-width:2;stroke-linecap:square;stroke-linejoin:round;stroke-opacity:1"
       d="m 16.233182,177.12419 c 0,0 0,-99.51229 0,-99.51229"
       id="path12"
       transform="matrix(1,0,0,0.99905377,0.02401358,0.16854708)" /><path
       style="fill:none;fill-opacity:1;stroke:#000000;stroke-width:2;stroke-linecap:square;stroke-linejoin:round;stroke-opacity:1"
       d="m 16.041073,77.707955 c 0,0 93.076647,0 93.076647,0"
       id="path13"
       transform="matrix(0.99772686,0,0,1,0.25031267,0)" /><path
       style="fill:none;fill-opacity:1;stroke:#000000;stroke-width:2;stroke-linecap:square;stroke-linejoin:round;stroke-opacity:1"
       d="m 52.445665,77.323737 c 0,0 0,-71.5604771 0,-71.5604771"
       id="path14"
       transform="matrix(1,0,0,0.88116074,0,9.3079354)" /><path
       style="fill:none;fill-opacity:1;stroke:#000000;stroke-width:2;stroke-linecap:square;stroke-linejoin:round;stroke-opacity:1"
       d="m 52.253557,14.504204 c 0,0 57.152323,0 57.152323,0"
       id="path15"
       transform="matrix(0.99594038,0,0,1,0.4482057,0)" /><path
       style="fill:none;fill-opacity:1;stroke:#000000;stroke-width:2;stroke-linecap:square;stroke-linejoin:round;stroke-opacity:1"
       d="m 137.35769,5.6672056 c 0,0 0,24.2056914 0,24.2056914"
       id="path16"
       transform="matrix(1,0,0,0.99725095,0,0.08487113)" /><path
       style="fill:none;fill-opacity:1;stroke:#000000;stroke-width:2;stroke-linecap:square;stroke-linejoin:round;stroke-opacity:1"
       d="m 109.40588,33.907179 c 0,0 0,43.128395 0,43.128395"
       id="path17" /><path
       style="fill:none;fill-opacity:1;stroke:#000000;stroke-width:2;stroke-linecap:square;stroke-linejoin:round;stroke-opacity:1"
       d="m 77.323737,29.296571 c 0,0 0,7.876456 0,7.876456"
       id="path18"
       transform="matrix(1,0,0,0.96045709,0,1.1189289)" /><path
       style="fill:none;fill-opacity:1;stroke:#000000;stroke-width:2;stroke-linecap:square;stroke-linejoin:round;stroke-opacity:1"
       d="m 52.157502,36.788809 c 0,0 24.685964,0 24.685964,0"
       id="path19"
       transform="matrix(0.9477333,0,0,1,4.068621,0)" /><path
       style="fill:none;fill-opacity:1;stroke:#000000;stroke-width:2;stroke-linecap:square;stroke-linejoin:round;stroke-opacity:1"
       d="m 186.44146,49.083764 c 0,0 -48.7956,0 -48.7956,0"
       id="path20"
       transform="matrix(1.0066186,0,0,1,-1.2405795,0)" /><path
       style="fill:none;fill-opacity:1;stroke:#000000;stroke-width:2;stroke-linecap:square;stroke-linejoin:round;stroke-opacity:1"
       d="m 137.06953,49.564035 c 0,0 0,53.886485 0,53.886485"
       id="path21"
       transform="matrix(1,0,0,1.046406,0.02401358,-4.8471286)" /><path
       style="fill:none;fill-opacity:1;stroke:#000000;stroke-width:2;stroke-linecap:square;stroke-linejoin:round;stroke-opacity:1"
       d="m 137.5498,118.6271 c 0,0 49.17982,0 49.17982,0"
       id="path22" /><path
       style="fill:none;fill-opacity:1;stroke:#000000;stroke-width:2;stroke-linecap:square;stroke-linejoin:round;stroke-opacity:1"
       d="m 137.5498,117.09023 c 0,0 0,27.27943 0,27.27943"
       id="path23" /><path
       style="fill:none;fill-opacity:1;stroke:#000000;stroke-width:2;stroke-linecap:square;stroke-linejoin:round;stroke-opacity:1"
       d="m 137.74191,144.27361 c 0,0 22.86093,0 22.86093,0"
       id="path24" /><path
       style="fill:none;fill-opacity:1;stroke:#000000;stroke-width:2;stroke-linecap:square;stroke-linejoin:round;stroke-opacity:1"
       d="m 137.47144,199.95845 c 0,0 -35.72628,0 -35.72628,0"
       id="path25" /><path
       style="fill:none;fill-opacity:1;stroke:#000000;stroke-width:2;stroke-linecap:square;stroke-linejoin:round;stroke-opacity:1"
       d="m 102.15269,176.86542 c 0,0 35.04706,0 35.04706,0"
       id="path26" /><path
       style="fill:none;fill-opacity:1;stroke:#000000;stroke-width:2;stroke-linecap:square;stroke-linejoin:round;stroke-opacity:1"
       d="m 102.15269,176.59374 c 0,0 0,9.23721 0,9.23721"
       id="path27"
       transform="matrix(1,0,0,0.98186721,0,3.3877671)" /><path
       style="fill:none;fill-opacity:1;stroke:#000000;stroke-width:2;stroke-linecap:square;stroke-linejoin:round;stroke-opacity:1"
       d="m 46.186055,197.24163 c 0,0 27.711635,0 27.711635,0"
       id="path28"
       transform="matrix(0.96767114,0,0,1,1.4608137,0)" /><path
       style="fill:none;fill-opacity:1;stroke:#000000;stroke-width:2;stroke-linecap:square;stroke-linejoin:round;stroke-opacity:1"
       d="m 73.761848,204.03369 c 0,0 0,-12.4974 0,-12.4974"
       id="path29" /><path
       style="fill:none;fill-opacity:1;stroke:#000000;stroke-width:2;stroke-linecap:square;stroke-linejoin:round;stroke-opacity:1"
       d="m 73.761848,178.22384 c 0,0 0,-37.35637 0,-37.35637"
       id="path30" /><path
       style="fill:none;fill-opacity:1;stroke:#000000;stroke-width:2;stroke-linecap:square;stroke-linejoin:round;stroke-opacity:1"
       d="m 17.659374,122.39305 c 0,0 56.102474,0 56.102474,0"
       id="path31"
       transform="matrix(0.99008087,0,0,1,0.1652465,0)" /><path
       style="fill:none;fill-opacity:1;stroke:#000000;stroke-width:2;stroke-linecap:square;stroke-linejoin:round;stroke-opacity:1"
       d="m 73.490166,121.17048 c 0,0 0,8.42216 0,8.42216"
       id="path32" /><path
       style="fill:none;fill-opacity:1;stroke:#000000;stroke-width:2;stroke-linecap:square;stroke-linejoin:round;stroke-opacity:1"
       d="m 80.961438,78.516294 c 0,0 0,26.624906 0,26.624906"
       id="path33" /><path
       style="fill:none;fill-opacity:1;stroke:#000000;stroke-width:2;stroke-linecap:square;stroke-linejoin:round;stroke-opacity:1"
       d="m 73.626005,106.63545 c 0,0 35.997955,0 35.997955,0"
       id="path34"
       transform="matrix(0.9892565,0,0,1,0.78025727,0)" /><path
       style="fill:none;fill-opacity:1;stroke:#000000;stroke-width:2;stroke-linecap:square;stroke-linejoin:round;stroke-opacity:1"
       d="m 109.21644,78.516294 c 0,0 0,27.847476 0,27.847476"
       id="path35" /><path
       style="fill:none;fill-opacity:1;stroke:#000000;stroke-width:2;stroke-linecap:square;stroke-linejoin:round;stroke-opacity:1"
       d="m 73.626005,217.07446 c 0,0 0,30.29262 0,30.29262"
       id="path36" /><path
       style="fill:none;fill-opacity:1;stroke:#000000;stroke-width:2;stroke-linecap:square;stroke-linejoin:round;stroke-opacity:1"
       d="m 102.56021,216.66694 c 0,0 0,36.813 0,36.813"
       id="path37" /><path
       style="fill:none;fill-opacity:1;stroke:#000000;stroke-width:2;stroke-linecap:square;stroke-linejoin:round;stroke-opacity:1"
       d="m 73.761848,267.33576 c 0,0 -56.102474,0 -56.102474,0"
       id="path38" /><path
       style="fill:none;fill-opacity:1;stroke:#000000;stroke-width:2;stroke-linecap:square;stroke-linejoin:round;stroke-opacity:1"
       d="m 74.03353,265.70567 c 0,0 0,3.12435 0,3.12435"
       id="path39" /><path
       style="fill:none;fill-opacity:1;stroke:#000000;stroke-width:2;stroke-linecap:square;stroke-linejoin:round;stroke-opacity:1"
       d="m 102.22061,265.29813 c 0,0 0,3.26019 0,3.26019"
       id="path40" /><path
       style="fill:none;fill-opacity:1;stroke:#000000;stroke-width:2;stroke-linecap:square;stroke-linejoin:round;stroke-opacity:1"
       d="m 159.88526,266.52071 c 0,0 -57.05337,0 -57.05337,0"
       id="path41" /><path
       style="fill:none;fill-opacity:1;stroke:#000000;stroke-width:2;stroke-linecap:square;stroke-linejoin:round;stroke-opacity:1"
       d="m 102.08476,290.25898 c 8.40228,8.09753 16.80454,16.19505 25.20681,24.29258"
       id="path42" /><path
       style="fill:none;fill-opacity:1;stroke:#000000;stroke-width:2;stroke-linecap:square;stroke-linejoin:round;stroke-opacity:1"
       d="m 159.07021,314.60855 c 0,0 -31.37935,0 -31.37935,0"
       id="path43" /><path
       style="fill:none;fill-opacity:1;stroke:#000000;stroke-width:2;stroke-linecap:square;stroke-linejoin:round;stroke-opacity:1"
       d="m 102.15269,330.75667 c 0,6.88829 0,13.77658 0,20.66487"
       id="path44" /><path
       style="fill:none;fill-opacity:1;stroke:#000000;stroke-width:2;stroke-linecap:square;stroke-linejoin:round;stroke-opacity:1"
       d="m 74.169372,330.63783 c 0,0 6.927908,0 6.927908,0"
       id="path45" /><path
       style="fill:none;fill-opacity:1;stroke:#000000;stroke-width:2;stroke-linecap:square;stroke-linejoin:round;stroke-opacity:1"
       d="m 73.89769,330.63782 c 0,6.9279 0,13.85581 0,20.78372"
       id="path46" /><path
       style="fill:none;fill-opacity:1;stroke:#000000;stroke-width:2;stroke-linecap:square;stroke-linejoin:round;stroke-opacity:1"
       d="m 94.002208,330.77367 c 0,0 7.471272,0 7.471272,0"
       id="path47" /><path
       style="fill:none;fill-opacity:1;stroke:#000000;stroke-width:2;stroke-linecap:square;stroke-linejoin:round;stroke-opacity:1"
       d="m 89.822672,302.38212 c 4.245846,4.30188 8.491692,8.60376 12.737538,12.90564"
       id="path48" /><path
       style="fill:none;fill-opacity:1;stroke:#000000;stroke-width:2;stroke-linecap:square;stroke-linejoin:round;stroke-opacity:1"
       d="m 82.382946,299.32156 c 1.020419,1.02042 2.040837,2.04084 3.061256,3.06126"
       id="path49" /><path
       style="fill:none;fill-opacity:1;stroke:#000000;stroke-width:2;stroke-linecap:square;stroke-linejoin:round;stroke-opacity:1"
       d="m 89.770476,302.29519 c 0.5478,-0.55698 1.095604,-1.11397 1.533826,-1.55611 0.438222,-0.44214 0.76687,-0.76944 1.095519,-1.09674"
       id="path50"
       transform="matrix(0.99313404,0,0,1.0024381,0.63457121,-0.73474785)" /><path
       style="fill:none;fill-opacity:1;stroke:#000000;stroke-width:2;stroke-linecap:square;stroke-linejoin:round;stroke-opacity:1"
       d="m 86.123408,302.24698 c 0,0 2.988512,0 2.988512,0"
       id="path51" /><path
       style="fill:none;fill-opacity:1;stroke:#000000;stroke-width:2;stroke-linecap:square;stroke-linejoin:round;stroke-opacity:1"
       d="m 73.354323,315.4236 c 4.155521,-4.27559 8.311043,-8.55118 12.466564,-12.82677"
       id="path52" /><path
       style="fill:none;fill-opacity:1;stroke:#000000;stroke-width:2;stroke-linecap:square;stroke-linejoin:round;stroke-opacity:1"
       d="m 73.626005,290.97216 c 0,0 -23.636393,23.63639 -23.636393,23.63639"
       id="path53" /><path
       style="fill:none;fill-opacity:1;stroke:#000000;stroke-width:2;stroke-linecap:square;stroke-linejoin:round;stroke-opacity:1"
       d="m 17.25185,314.47271 c 0,0 31.243509,0 31.243509,0"
       id="path54" /><path
       style="fill:none;fill-opacity:1;stroke:#000000;stroke-width:2;stroke-linecap:square;stroke-linejoin:round;stroke-opacity:1"
       d="m 73.89769,280.24068 c 0,0 0,10.05227 0,10.05227"
       id="path55" /><path
       style="fill:none;fill-opacity:1;stroke:#000000;stroke-width:2;stroke-linecap:square;stroke-linejoin:round;stroke-opacity:1"
       d="m 101.74516,281.32741 c 0,0 0,8.69386 0,8.69386"
       id="path56" /></g></svg>
