<?xml version="1.0" encoding="UTF-8" standalone="no"?>
<!-- Created with Inkscape (http://www.inkscape.org/) -->

<svg
   width="267.57309mm"
   height="191.92317mm"
   viewBox="0 0 267.57309 191.92317"
   version="1.1"
   id="svg1"
   xml:space="preserve"
   xmlns="http://www.w3.org/2000/svg"
   xmlns:svg="http://www.w3.org/2000/svg"><defs
     id="defs1" /><g
     id="layer2"
     transform="translate(-12.176609,-52.657333)"><g
       id="salas"><path
         style="fill:#525252;fill-opacity:0.00815663;stroke:none;stroke-width:2;stroke-linecap:square;stroke-linejoin:round;stroke-opacity:0"
         d="M 13.855817,119.81206 V 54.336537 h 12.633245 v 21.25917 H 41.974973 V 119.2687 Z"
         id="sala1" /><path
         style="fill:#525252;fill-opacity:0.00815663;stroke:none;stroke-width:2;stroke-linecap:square;stroke-linejoin:round;stroke-opacity:0"
         d="M 58.615537,54.268615 71.316704,54.132773 V 104.39407 H 43.265468 V 75.527785 h 15.010466 z"
         id="sala2" /><path
         style="fill:#525252;fill-opacity:0.00815663;stroke:none;stroke-width:2;stroke-linecap:square;stroke-linejoin:round;stroke-opacity:0"
         d="M 71.927989,54.336537 H 84.15371 V 75.93531 h 15.96136 v 37.62805 H 71.588386 L 71.384625,53.996933 Z"
         id="sala3" /><path
         style="fill:#525252;fill-opacity:0.00815663;stroke:none;stroke-width:2;stroke-linecap:square;stroke-linejoin:round;stroke-opacity:0"
         d="m 117.09023,54.078589 h 12.00679 v 51.004851 h -18.9227 -9.50938 v -28.8163 h 16.13713 z"
         id="sala4" /><path
         style="fill:#525252;fill-opacity:0.00815663;stroke:none;stroke-width:2;stroke-linecap:square;stroke-linejoin:round;stroke-opacity:0"
         d="m 130.44178,54.750969 v 50.908801 h 27.27943 V 76.843466 H 142.54463 V 54.750969 Z"
         id="sala5" /><path
         style="fill:#525252;fill-opacity:0.00815663;stroke:none;stroke-width:2;stroke-linecap:square;stroke-linejoin:round;stroke-opacity:0"
         d="m 174.62678,54.078589 h 12.391 V 105.46766 H 158.29754 V 76.459248 h 15.36869 z"
         id="sala6" /><path
         style="fill:#525252;fill-opacity:0.00815663;stroke:none;stroke-width:2;stroke-linecap:square;stroke-linejoin:round;stroke-opacity:0"
         d="M 188.07438,54.270698 V 105.65977 H 215.1617 V 76.747411 H 200.08117 V 54.078589 Z"
         id="sala7" /><path
         style="fill:#525252;fill-opacity:0.00815663;stroke:none;stroke-width:2;stroke-linecap:square;stroke-linejoin:round;stroke-opacity:0"
         d="M 245.0346,54.174643 V 105.56371 H 216.12225 V 76.747411 h 16.6174 V 54.462806 Z"
         id="sala8" /><path
         style="fill:#525252;fill-opacity:0.00815663;stroke:none;stroke-width:2;stroke-linecap:square;stroke-linejoin:round;stroke-opacity:0"
         d="m 129.38519,118.14683 v 27.37548 h 58.59314 v -27.18337 z"
         id="sala9" /><path
         style="fill:#525252;fill-opacity:0.00815663;stroke:none;stroke-width:2;stroke-linecap:square;stroke-linejoin:round;stroke-opacity:0"
         d="m 100.85705,163.29236 v 57.4405 h 15.84896 v 22.76487 h 12.39101 v -80.20537 z"
         id="sala10" /><path
         style="fill:#525252;fill-opacity:0.00815663;stroke:none;stroke-width:2;stroke-linecap:square;stroke-linejoin:round;stroke-opacity:0"
         d="m 71.752586,174.05045 v 69.35123 h 12.294955 v -22.66882 h 16.329239 v -46.68241 z"
         id="sala11" /><path
         style="fill:#525252;fill-opacity:0.00815663;stroke:none;stroke-width:2;stroke-linecap:square;stroke-linejoin:round;stroke-opacity:0"
         d="M 57.632599,162.52393 H 13.831824 v 80.9738 H 26.60705 v -22.18855 h 31.409767 z"
         id="sala12" /><path
         style="fill:#525252;fill-opacity:0.00815663;stroke:none;stroke-width:2;stroke-linecap:square;stroke-linejoin:round;stroke-opacity:0"
         d="m 41.495471,119.97186 v 42.0718 H 13.447606 v -42.74418 z"
         id="sala13" /><path
         style="fill:#525252;fill-opacity:0.00815663;stroke:none;stroke-width:2;stroke-linecap:square;stroke-linejoin:round;stroke-opacity:0"
         d="m 187.97833,118.53105 v 26.12677 h 27.7597 v -25.45439 z"
         id="sala14" /><path
         style="fill:#525252;fill-opacity:0.00815663;stroke:none;stroke-width:2;stroke-linecap:square;stroke-linejoin:round;stroke-opacity:0"
         d="m 216.89068,118.6271 v 27.18338 h 28.72025 v -27.37549 z"
         id="sala15" /><path
         style="fill:#525252;fill-opacity:0.00815663;stroke:none;stroke-width:2;stroke-linecap:square;stroke-linejoin:round;stroke-opacity:0"
         d="m 246.47542,163.19631 v 28.8163 h 31.60187 v -28.62419 z"
         id="sala16" /><path
         style="fill:#525252;fill-opacity:0.00815663;stroke:none;stroke-width:2;stroke-linecap:square;stroke-linejoin:round;stroke-opacity:0"
         d="m 246.28331,191.8205 v 29.39263 h 31.9861 v -29.48868 z"
         id="sala17" /><path
         style="fill:#525252;fill-opacity:0.00815663;stroke:none;stroke-width:2;stroke-linecap:square;stroke-linejoin:round;stroke-opacity:0"
         d="m 226.59217,162.81209 v 15.94502 l -2.68952,2.49741 h -36.40459 v -18.34637 z"
         id="sala18" /><path
         style="fill:#525252;fill-opacity:0.00815663;stroke:none;stroke-width:2;stroke-linecap:square;stroke-linejoin:round;stroke-opacity:0"
         d="m 199.40879,193.06921 h 30.64134 l 3.65006,2.40136 v 25.45439 h -34.48351 z"
         id="sala19" /><path
         style="fill:#525252;fill-opacity:0.00815663;stroke:none;stroke-width:2;stroke-linecap:square;stroke-linejoin:round;stroke-opacity:0"
         d="m 158.87387,163.19631 v 28.72025 h 28.14391 v -28.6242 z"
         id="sala20" /><path
         style="fill:#525252;fill-opacity:0.00815663;stroke:none;stroke-width:2;stroke-linecap:square;stroke-linejoin:round;stroke-opacity:0"
         d="m 159.06597,191.8205 v 29.29657 h 15.46475 v 22.57277 h 12.96734 v -51.96539 z"
         id="sala21" /></g><g
       id="layer3"
       style="display:inline"><path
         style="fill:none;fill-opacity:0;stroke:#000000;stroke-width:2;stroke-linecap:square;stroke-linejoin:round;stroke-opacity:1"
         d="m 13.855817,53.385648 c -0.09056,18.655544 -0.181122,37.311088 -0.271683,55.966632"
         id="path1"
         transform="matrix(1.0100826,0,0,0.98730615,-0.1383326,1.389469)" /><path
         style="fill:none;fill-opacity:0;stroke:#000000;stroke-width:2;stroke-linecap:square;stroke-linejoin:round;stroke-opacity:1"
         d="m 13.584134,243.02016 c 0,-41.34105 0,-82.6821 0,-124.02315"
         id="path2" /><path
         style="fill:none;fill-opacity:0;stroke:#000000;stroke-width:2;stroke-linecap:square;stroke-linejoin:round;stroke-opacity:1"
         d="m 13.312451,243.42768 c 4.663886,0 9.327771,0 13.991657,0"
         id="path3"
         transform="matrix(0.96649302,0,0,1,0.6842357,0)" /><path
         style="fill:none;fill-opacity:0;stroke:#000000;stroke-width:2;stroke-linecap:square;stroke-linejoin:round;stroke-opacity:1"
         d="m 27.032426,243.42768 c 0,-7.38071 0,-14.76143 0,-22.14214"
         id="path4" /><path
         style="fill:none;fill-opacity:0;stroke:#000000;stroke-width:2;stroke-linecap:square;stroke-linejoin:round;stroke-opacity:1"
         d="m 23.500552,220.87802 c 11.818196,0 23.636392,0 35.454588,0"
         id="path5" /><path
         style="fill:none;fill-opacity:0;stroke:#000000;stroke-width:2;stroke-linecap:square;stroke-linejoin:round;stroke-opacity:1"
         d="m 58.95514,220.74218 c 0,7.47127 0,14.94255 0,22.41382"
         id="path6"
         transform="matrix(1,0,0,0.99443588,0,1.3585125)" /><path
         style="fill:none;fill-opacity:0;stroke:#000000;stroke-width:2;stroke-linecap:square;stroke-linejoin:round;stroke-opacity:1"
         d="m 58.547618,243.56352 c 8.739126,0 17.478251,0 26.217377,0"
         id="path7"
         transform="matrix(0.95607132,0,0,1,2.9524952,0)" /><path
         style="fill:none;fill-opacity:0;stroke:#000000;stroke-width:2;stroke-linecap:square;stroke-linejoin:round;stroke-opacity:1"
         d="m 71.588386,244.10689 c 0,-23.54583 0,-47.09167 0,-70.6375"
         id="path8"
         transform="matrix(1,0,0,0.99135065,0,1.4917459)" /><path
         style="fill:none;fill-opacity:0;stroke:#000000;stroke-width:2;stroke-linecap:square;stroke-linejoin:round;stroke-opacity:1"
         d="m 13.17661,162.46624 c 14.806706,0 29.613411,0 44.420117,0"
         id="path9" /><path
         style="fill:none;fill-opacity:0;stroke:#000000;stroke-width:2;stroke-linecap:square;stroke-linejoin:round;stroke-opacity:1"
         d="m 83.949949,220.74218 c 0,7.60711 0,15.21423 0,22.82134"
         id="path10" /><path
         style="fill:none;fill-opacity:0;stroke:#000000;stroke-width:2;stroke-linecap:square;stroke-linejoin:round;stroke-opacity:1"
         d="m 83.1349,220.74218 c 11.727637,0 23.45527,0 35.18291,0"
         id="path11" /><path
         style="fill:none;fill-opacity:0;stroke:#000000;stroke-width:2;stroke-linecap:square;stroke-linejoin:round;stroke-opacity:1"
         d="m 116.41603,220.74218 c 0,7.69768 0,15.39535 0,23.09303"
         id="path12"
         transform="matrix(1,0,0,0.98883465,0,2.453501)" /><path
         style="fill:none;fill-opacity:0;stroke:#000000;stroke-width:2;stroke-linecap:square;stroke-linejoin:round;stroke-opacity:1"
         d="m 116.28019,243.56352 c 9.10137,0 18.20274,0 27.30411,0"
         id="path13"
         transform="matrix(0.95790496,0,0,1,5.005546,0)" /><path
         style="fill:none;fill-opacity:0;stroke:#000000;stroke-width:2;stroke-linecap:square;stroke-linejoin:round;stroke-opacity:1"
         d="m 142.49756,220.87802 c 0,7.69768 0,15.39535 0,23.09303"
         id="path14"
         transform="matrix(1,0,0,0.97965125,0,4.5943107)" /><path
         style="fill:none;fill-opacity:0;stroke:#000000;stroke-width:1.99344;stroke-linecap:square;stroke-linejoin:round;stroke-opacity:1"
         d="m 138.8233,221.01386 c 6.61262,0 13.22525,0 19.83788,0"
         id="path15" /><path
         style="fill:none;fill-opacity:0;stroke:#000000;stroke-width:1.97533;stroke-linecap:square;stroke-linejoin:round;stroke-opacity:1"
         d="m 158.66269,221.0214 c 0,-19.39072 0,-38.78144 0,-58.17216"
         id="path16" /><path
         style="fill:none;fill-opacity:0;stroke:#000000;stroke-width:2;stroke-linecap:square;stroke-linejoin:round;stroke-opacity:1"
         d="m 188.00441,163.55297 c -9.50889,0 -19.01779,0 -28.52668,0"
         id="path17"
         transform="matrix(2.5424411,0,0,1,-245.2576,-0.67920672)" /><path
         style="fill:none;fill-opacity:0;stroke:#000000;stroke-width:2;stroke-linecap:square;stroke-linejoin:round;stroke-opacity:1"
         d="m 245.60114,145.35023 c -38.94118,0 -77.88237,0 -116.82355,0"
         id="path18"
         transform="matrix(0.99666544,0,0,1,0.82230603,0)" /><path
         style="fill:none;fill-opacity:0;stroke:#000000;stroke-width:2;stroke-linecap:square;stroke-linejoin:round;stroke-opacity:1"
         d="m 129.18512,117.50276 c 0,9.41833 0,18.83667 0,28.255"
         id="path19"
         transform="matrix(1,0,0,0.98769755,0,1.433269)" /><path
         style="fill:none;fill-opacity:0;stroke:#000000;stroke-width:2;stroke-linecap:square;stroke-linejoin:round;stroke-opacity:1"
         d="m 115.73682,133.93956 c -14.76142,0 -29.522849,0 -44.284274,0"
         id="path20"
         transform="matrix(0.99714645,0,0,1,0.33311491,0)" /><path
         style="fill:none;fill-opacity:0;stroke:#000000;stroke-width:2;stroke-linecap:square;stroke-linejoin:round;stroke-opacity:1"
         d="m 101.06596,74.03353 c 0,19.787553 0,39.57511 0,59.36266"
         id="path21"
         transform="matrix(1,0,0,0.96399683,0,4.8386876)" /><path
         style="fill:none;fill-opacity:0;stroke:#000000;stroke-width:2;stroke-linecap:square;stroke-linejoin:round;stroke-opacity:1"
         d="m 13.991658,54.064854 c 4.211081,0 8.422162,0 12.633243,0"
         id="path22"
         transform="translate(0.16980168,0.03396034)" /><path
         style="fill:none;fill-opacity:0;stroke:#000000;stroke-width:2;stroke-linecap:square;stroke-linejoin:round;stroke-opacity:1"
         d="m 26.896586,53.65733 c 0,7.516554 0,15.033108 0,22.549662"
         id="path23"
         transform="matrix(1,0,0,0.94328337,0,3.4280298)" /><path
         style="fill:none;fill-opacity:0;stroke:#000000;stroke-width:2;stroke-linecap:square;stroke-linejoin:round;stroke-opacity:1"
         d="m 22.549663,75.256103 c 13.040769,0 26.081537,0 39.122306,0"
         id="path24" /><path
         style="fill:none;fill-opacity:0;stroke:#000000;stroke-width:2;stroke-linecap:square;stroke-linejoin:round;stroke-opacity:1"
         d="m 58.275934,52.978123 c 0,7.471273 0,14.942547 0,22.41382"
         id="path25"
         transform="matrix(1,0,0,0.96667672,0,2.54563)" /><path
         style="fill:none;fill-opacity:0;stroke:#000000;stroke-width:2;stroke-linecap:square;stroke-linejoin:round;stroke-opacity:1"
         d="m 58.95514,53.79317 c 8.467444,0 16.934887,0 25.402331,0"
         id="path26" /><path
         style="fill:none;fill-opacity:0;stroke:#000000;stroke-width:2;stroke-linecap:square;stroke-linejoin:round;stroke-opacity:1"
         d="m 84.764995,53.521488 c 0.09056,7.607115 0.181123,15.214231 0.271685,22.821346"
         id="path27"
         transform="matrix(1.0249207,0,0,0.96884686,-2.1157877,1.9401768)" /><path
         style="fill:none;fill-opacity:0;stroke:#000000;stroke-width:2;stroke-linecap:square;stroke-linejoin:round;stroke-opacity:1"
         d="m 81.504805,75.93531 c 12.904925,0 25.809845,0 38.714775,0"
         id="path28" /><path
         style="fill:none;fill-opacity:0;stroke:#000000;stroke-width:2;stroke-linecap:square;stroke-linejoin:round;stroke-opacity:1"
         d="m 116.68771,52.978123 c 0,7.924078 0,15.848155 0,23.772233"
         id="path29"
         transform="matrix(1,0,0,0.93499138,0,4.1714735)" /><path
         style="fill:none;fill-opacity:0;stroke:#000000;stroke-width:2;stroke-linecap:square;stroke-linejoin:round;stroke-opacity:1"
         d="m 116.82355,53.79317 c 8.51273,0 17.02545,0 25.53818,0"
         id="path30" /><path
         style="fill:none;fill-opacity:0;stroke:#000000;stroke-width:2;stroke-linecap:square;stroke-linejoin:round;stroke-opacity:1"
         d="m 142.76925,53.65733 c 0,7.607115 0,15.214229 0,22.821344"
         id="path31"
         transform="matrix(1,0,0,0.99516271,0,0.37478645)" /><path
         style="fill:none;fill-opacity:0;stroke:#000000;stroke-width:2;stroke-linecap:square;stroke-linejoin:round;stroke-opacity:1"
         d="m 138.82985,76.342834 c 13.08605,0 26.1721,0 39.25815,0"
         id="path32" /><path
         style="fill:none;fill-opacity:0;stroke:#000000;stroke-width:2;stroke-linecap:square;stroke-linejoin:round;stroke-opacity:1"
         d="m 174.1486,53.521488 c 0,7.652395 0,15.304791 0,22.957186"
         id="path33"
         transform="matrix(1,0,0,0.97883178,0,1.2558671)" /><path
         style="fill:none;fill-opacity:0;stroke:#000000;stroke-width:2;stroke-linecap:square;stroke-linejoin:round;stroke-opacity:1"
         d="m 174.01276,53.65733 c 8.87497,0 17.74993,0 26.6249,0"
         id="path34"
         transform="matrix(0.99538602,0,0,1,0.93035207,0)" /><path
         style="fill:none;fill-opacity:0;stroke:#000000;stroke-width:2;stroke-linecap:square;stroke-linejoin:round;stroke-opacity:1"
         d="m 200.50182,53.65733 c 0,7.607115 0,15.214229 0,22.821344"
         id="path35"
         transform="matrix(1,0,0,0.99129289,0,0.45849334)" /><path
         style="fill:none;fill-opacity:0;stroke:#000000;stroke-width:2;stroke-linecap:square;stroke-linejoin:round;stroke-opacity:1"
         d="m 197.10578,76.342834 c 13.04077,0 26.08154,0 39.12231,0"
         id="path36" /><path
         style="fill:none;fill-opacity:0;stroke:#000000;stroke-width:2;stroke-linecap:square;stroke-linejoin:round;stroke-opacity:1"
         d="m 232.15285,52.842281 c 0,8.014639 0,16.029279 0,24.043918"
         id="path37"
         transform="matrix(1,0,0,0.93868423,0,4.1753139)" /><path
         style="fill:none;fill-opacity:0;stroke:#000000;stroke-width:2;stroke-linecap:square;stroke-linejoin:round;stroke-opacity:1"
         d="m 232.42453,53.113963 c 4.21108,0 8.42217,0 12.63325,0"
         id="path38"
         transform="translate(-0.09605433,0.7204075)" /><path
         style="fill:none;fill-opacity:0;stroke:#000000;stroke-width:2;stroke-linecap:square;stroke-linejoin:round;stroke-opacity:1"
         d="m 246.00867,52.978123 c 0,7.697676 0,15.395351 0,23.093027"
         id="path39"
         transform="matrix(1,0,0,2.156549,-0.40752403,-59.262759)" /><path
         style="fill:none;fill-opacity:0;stroke:#000000;stroke-width:2;stroke-linecap:square;stroke-linejoin:round;stroke-opacity:1"
         d="m 246.18726,134.1879 c 0,-5.41106 0,-10.82212 0,-16.23318"
         id="path40"
         transform="matrix(1,0,0,0.97892756,0,2.848737)" /><path
         style="fill:none;fill-opacity:0;stroke:#000000;stroke-width:2;stroke-linecap:square;stroke-linejoin:round;stroke-opacity:1"
         d="m 244.93855,118.33894 c -15.94502,0 -31.89004,0 -47.83506,0"
         id="path41" /><path
         style="fill:none;fill-opacity:0;stroke:#000000;stroke-width:2;stroke-linecap:square;stroke-linejoin:round;stroke-opacity:1"
         d="m 188.36255,118.24288 c -16.13713,0 -32.27426,0 -48.41139,0"
         id="path42" /><path
         style="fill:none;fill-opacity:0;stroke:#000000;stroke-width:2;stroke-linecap:square;stroke-linejoin:round;stroke-opacity:1"
         d="m 110.55854,105.56371 c 6.14748,0 12.29495,0 18.44243,0"
         id="path43" /><path
         style="fill:none;fill-opacity:0;stroke:#000000;stroke-width:2;stroke-linecap:square;stroke-linejoin:round;stroke-opacity:1"
         d="m 139.37484,106.4282 c 6.62775,0 13.25549,0 19.88324,0"
         id="path44" /><path
         style="fill:none;fill-opacity:0;stroke:#000000;stroke-width:2;stroke-linecap:square;stroke-linejoin:round;stroke-opacity:1"
         d="m 168.86352,105.75582 c 6.14748,0 12.29495,0 18.44243,0"
         id="path45" /><path
         style="fill:none;fill-opacity:0;stroke:#000000;stroke-width:2;stroke-linecap:square;stroke-linejoin:round;stroke-opacity:1"
         d="m 197.58376,105.94793 c 6.30757,0 12.61513,0 18.9227,0"
         id="path46" /><path
         style="fill:none;fill-opacity:0;stroke:#000000;stroke-width:2;stroke-linecap:square;stroke-linejoin:round;stroke-opacity:1"
         d="m 226.30401,105.94793 c 6.1795,0 12.35899,0 18.53849,0"
         id="path47" /><path
         style="fill:none;fill-opacity:0;stroke:#000000;stroke-width:2;stroke-linecap:square;stroke-linejoin:round;stroke-opacity:1"
         d="m 215.73803,76.075031 c 0,9.957633 0,19.915266 0,29.872899"
         id="path48"
         transform="matrix(1,0,0,0.99171241,0,0.88634025)" /><path
         style="fill:none;fill-opacity:0;stroke:#000000;stroke-width:2;stroke-linecap:square;stroke-linejoin:round;stroke-opacity:1"
         d="m 187.49806,54.462806 c 0,17.097671 0,34.195343 0,51.293014"
         id="path49" /><path
         style="fill:none;fill-opacity:0;stroke:#000000;stroke-width:2;stroke-linecap:square;stroke-linejoin:round;stroke-opacity:1"
         d="m 158.39359,76.363194 c 0,10.149742 0,20.299484 0,30.449226"
         id="path50"
         transform="matrix(1,0,0,0.98667935,0,1.0038861)" /><path
         style="fill:none;fill-opacity:0;stroke:#000000;stroke-width:2;stroke-linecap:square;stroke-linejoin:round;stroke-opacity:1"
         d="m 129.7694,53.598317 c 0,17.193724 0,34.387449 0,51.581173"
         id="path51"
         transform="matrix(1,0,0,1.0004078,0,0.33875453)" /><path
         style="fill:none;fill-opacity:0;stroke:#000000;stroke-width:2;stroke-linecap:square;stroke-linejoin:round;stroke-opacity:1"
         d="m 71.560477,53.118046 c 0,17.385835 0,34.771669 0,52.157504"
         id="path52"
         transform="matrix(1,0,0,0.98669792,0,1.413686)" /><path
         style="fill:none;fill-opacity:0;stroke:#000000;stroke-width:2;stroke-linecap:square;stroke-linejoin:round;stroke-opacity:1"
         d="m 42.552069,75.306596 c 0,11.462485 0,22.924969 0,34.387454"
         id="path53" /><path
         style="fill:none;fill-opacity:0;stroke:#000000;stroke-width:2;stroke-linecap:square;stroke-linejoin:round;stroke-opacity:1"
         d="m 42.744178,104.1229 c 6.115459,0 12.230918,0 18.346377,0"
         id="path54" /><path
         style="fill:none;fill-opacity:0;stroke:#000000;stroke-width:2;stroke-linecap:square;stroke-linejoin:round;stroke-opacity:1"
         d="m 13.735769,119.49159 c 9.637451,0 19.274903,0 28.912354,0"
         id="path55"
         transform="matrix(0.98446344,0,0,1,0.19787005,0)" /><path
         style="fill:none;fill-opacity:0;stroke:#000000;stroke-width:2;stroke-linecap:square;stroke-linejoin:round;stroke-opacity:1"
         d="m 42.167852,119.49159 c 0,11.04625 0,22.09249 0,33.13874"
         id="path56" /><path
         style="fill:none;fill-opacity:0;stroke:#000000;stroke-width:2;stroke-linecap:square;stroke-linejoin:round;stroke-opacity:1"
         d="m 100.37678,114.30466 c -9.605434,0 -19.210869,0 -28.816303,0"
         id="path57" /><path
         style="fill:none;fill-opacity:0;stroke:#000000;stroke-width:2;stroke-linecap:square;stroke-linejoin:round;stroke-opacity:1"
         d="m 71.560477,123.81403 c 0,3.84217 0,7.68435 0,11.52652"
         id="path58" /><path
         style="fill:none;fill-opacity:0;stroke:#000000;stroke-width:2;stroke-linecap:square;stroke-linejoin:round;stroke-opacity:1"
         d="m 57.632599,173.18596 c 0,12.39101 0,24.78202 0,37.17303"
         id="path59" /><path
         style="fill:none;fill-opacity:0;stroke:#000000;stroke-width:2;stroke-linecap:square;stroke-linejoin:round;stroke-opacity:1"
         d="m 66.949869,177.70051 c 1.216688,0 2.433377,0 3.650065,0"
         id="path60" /><path
         style="fill:none;fill-opacity:0;stroke:#000000;stroke-width:2;stroke-linecap:square;stroke-linejoin:round;stroke-opacity:1"
         d="m 100.56889,220.6368 c 0,-15.72089 0,-31.44179 0,-47.16268"
         id="path61" /><path
         style="fill:none;fill-opacity:0;stroke:#000000;stroke-width:2;stroke-linecap:square;stroke-linejoin:round;stroke-opacity:1"
         d="m 82.0304,174.1465 c 6.019403,0 12.038807,0 18.05821,0"
         id="path62" /><path
         style="fill:none;fill-opacity:0;stroke:#000000;stroke-width:2;stroke-linecap:square;stroke-linejoin:round;stroke-opacity:1"
         d="m 91.155561,163.0042 c 12.551099,0 25.102199,0 37.653299,0"
         id="path63" /><path
         style="fill:none;fill-opacity:0;stroke:#000000;stroke-width:2;stroke-linecap:square;stroke-linejoin:round;stroke-opacity:1"
         d="m 129.38519,163.38842 c 0,26.67109 0,53.34217 0,80.01326"
         id="path64" /><path
         style="fill:none;fill-opacity:0;stroke:#000000;stroke-width:2;stroke-linecap:square;stroke-linejoin:round;stroke-opacity:1"
         d="m 159.06597,163.0042 c -6.17949,0 -12.35899,0 -18.53848,0"
         id="path65"
         transform="matrix(0.97974465,0,0,1,2.8261781,0)" /><path
         style="fill:#858585;fill-opacity:0.430079;stroke:#000000;stroke-width:2;stroke-linecap:square;stroke-linejoin:round;stroke-opacity:1"
         d="m 245.70698,163.10026 c 10.98221,0 21.96442,0 32.94663,0"
         id="path79" /><path
         style="fill:#858585;fill-opacity:0.430079;stroke:#000000;stroke-width:2;stroke-linecap:square;stroke-linejoin:round;stroke-opacity:1"
         d="m 278.74968,163.0042 c 0,19.46701 0,38.93403 0,58.40104"
         id="path80" /><path
         style="fill:#858585;fill-opacity:0.430079;stroke:#000000;stroke-width:2;stroke-linecap:square;stroke-linejoin:round;stroke-opacity:1"
         d="m 244.8425,221.30918 c 11.30239,0 22.60479,0 33.90718,0"
         id="path81"
         transform="matrix(1.0147129,0,0,1,-4.1159298,0)" /><path
         style="fill:#858585;fill-opacity:0.430079;stroke:#000000;stroke-width:2;stroke-linecap:square;stroke-linejoin:round;stroke-opacity:1"
         d="m 245.13066,191.8205 c 11.04625,0 22.0925,0 33.13875,0"
         id="path82" /><path
         style="fill:#858585;fill-opacity:0.430079;stroke:#000000;stroke-width:2;stroke-linecap:square;stroke-linejoin:round;stroke-opacity:1"
         d="m 208.05368,192.58894 c 6.88389,0 13.76779,0 20.65168,0"
         id="path83" /><path
         style="fill:#858585;fill-opacity:0.430079;stroke:#000000;stroke-width:2;stroke-linecap:square;stroke-linejoin:round;stroke-opacity:1"
         d="m 235.52522,221.02102 c -6.7238,0 -13.44761,0 -20.17141,0"
         id="path84"
         transform="matrix(1.7798232,0,0,1,-185.31235,0)" /><path
         style="fill:#858585;fill-opacity:0.430079;stroke:#000000;stroke-width:2;stroke-linecap:square;stroke-linejoin:round;stroke-opacity:1"
         d="m 233.98835,197.67982 c 0,7.49224 0,14.98447 0,22.47671"
         id="path85" /><path
         style="fill:#858585;fill-opacity:0.430079;stroke:#000000;stroke-width:2;stroke-linecap:square;stroke-linejoin:round;stroke-opacity:1"
         d="m 199.40879,191.91656 c 0,9.66947 0,19.33893 0,29.0084"
         id="path86" /><path
         style="fill:#858585;fill-opacity:0.430079;stroke:#000000;stroke-width:2;stroke-linecap:square;stroke-linejoin:round;stroke-opacity:1"
         d="m 174.62678,220.73286 c -5.28299,0 -10.56598,0 -15.84897,0"
         id="path87" /><path
         style="fill:#858585;fill-opacity:0.430079;stroke:#000000;stroke-width:2;stroke-linecap:square;stroke-linejoin:round;stroke-opacity:1"
         d="m 174.53072,220.82891 c 0,7.36417 0,14.72833 0,22.0925"
         id="path88" /><path
         style="fill:#858585;fill-opacity:0.430079;stroke:#000000;stroke-width:2;stroke-linecap:square;stroke-linejoin:round;stroke-opacity:1"
         d="m 174.62678,243.40168 c 8.61287,0 17.22574,0 25.83861,0"
         id="path89" /><path
         style="fill:#858585;fill-opacity:0.430079;stroke:#000000;stroke-width:2;stroke-linecap:square;stroke-linejoin:round;stroke-opacity:1"
         d="m 200.17723,221.30918 c 0,6.94793 0,13.89586 0,20.84379"
         id="path90" /><path
         style="fill:#858585;fill-opacity:0.430079;stroke:#000000;stroke-width:2;stroke-linecap:square;stroke-linejoin:round;stroke-opacity:1"
         d="m 187.88227,202.29042 c 0,13.6077 0,27.2154 0,40.8231"
         id="path91" /><path
         style="fill:#858585;fill-opacity:0.430079;stroke:#000000;stroke-width:2;stroke-linecap:square;stroke-linejoin:round;stroke-opacity:1"
         d="m 159.25808,191.62839 c 9.15718,0 18.31436,0 27.47154,0"
         id="path92" /><path
         style="fill:#858585;fill-opacity:0.430079;stroke:#000000;stroke-width:2;stroke-linecap:square;stroke-linejoin:round;stroke-opacity:1"
         d="m 138.6064,191.62839 c 6.78784,0 13.57568,0 20.36352,0"
         id="path93" /><path
         style="fill:#858585;fill-opacity:0.430079;stroke:#000000;stroke-width:2;stroke-linecap:square;stroke-linejoin:round;stroke-opacity:1"
         d="m 187.11384,163.0042 c 0,6.33959 0,12.67917 0,19.01876"
         id="path94" /><path
         style="fill:#858585;fill-opacity:0.430079;stroke:#000000;stroke-width:2;stroke-linecap:square;stroke-linejoin:round;stroke-opacity:1"
         d="m 223.80659,181.06242 c -8.86902,0 -17.73803,0 -26.60705,0"
         id="path95" /><path
         style="fill:#858585;fill-opacity:0.430079;stroke:#000000;stroke-width:2;stroke-linecap:square;stroke-linejoin:round;stroke-opacity:1"
         d="m 227.1685,163.10026 c 0,4.61061 0,9.22121 0,13.83182"
         id="path96" /><path
         style="fill:#858585;fill-opacity:0.430079;stroke:#000000;stroke-width:2;stroke-linecap:square;stroke-linejoin:round;stroke-opacity:1"
         d="m 245.89909,164.44502 c 0,5.63519 0,11.27037 0,16.90556"
         id="path97" /><path
         style="fill:none;fill-opacity:0.430079;stroke:#000000;stroke-width:2;stroke-linecap:square;stroke-linejoin:round;stroke-opacity:1"
         d="m 229.40207,192.58906 c 0,0 4.65256,0.13584 4.65256,5.12801"
         id="path101" /><path
         style="fill:none;fill-opacity:0.430079;stroke:#000000;stroke-width:2;stroke-linecap:square;stroke-linejoin:round;stroke-opacity:1"
         d="m 224.24009,181.07651 c 0,0 2.95455,0.23772 2.95455,-3.7696"
         id="path102" /><path
         style="fill:none;fill-opacity:0.430079;stroke:#000000;stroke-width:2;stroke-linecap:square;stroke-linejoin:round;stroke-opacity:1"
         d="m 187.49806,117.95472 v 16.90556"
         id="path103" /><path
         style="fill:none;fill-opacity:0.430079;stroke:#000000;stroke-width:2;stroke-linecap:square;stroke-linejoin:round;stroke-opacity:1"
         d="m 216.50646,118.53105 v 15.65685 h -3.45795 6.43564"
         id="path104" /></g></g></svg>
